<?xml version="1.0" encoding="UTF-8" standalone="no"?>
<svg
   xmlns:dc="http://purl.org/dc/elements/1.1/"
   xmlns:cc="http://creativecommons.org/ns#"
   xmlns:rdf="http://www.w3.org/1999/02/22-rdf-syntax-ns#"
   xmlns:svg="http://www.w3.org/2000/svg"
   xmlns="http://www.w3.org/2000/svg"
   xmlns:sodipodi="http://sodipodi.sourceforge.net/DTD/sodipodi-0.dtd"
   xmlns:inkscape="http://www.inkscape.org/namespaces/inkscape"
   version="1.1"
   viewBox="0 0 144 140"
   width="720"
   height="700"
   id="svg2"
   inkscape:version="0.48.3.1 r9886"
   sodipodi:docname="Austauschmischkristall,_kubischflächenzentriert.svg">
  <metadata
     id="metadata62">
    <rdf:RDF>
      <cc:Work
         rdf:about="">
        <dc:format>image/svg+xml</dc:format>
        <dc:type
           rdf:resource="http://purl.org/dc/dcmitype/StillImage" />
        <dc:title></dc:title>
      </cc:Work>
    </rdf:RDF>
  </metadata>
  <defs
     id="defs60" />
  <sodipodi:namedview
     pagecolor="#ffffff"
     bordercolor="#666666"
     borderopacity="1"
     objecttolerance="10"
     gridtolerance="10"
     guidetolerance="10"
     inkscape:pageopacity="0"
     inkscape:pageshadow="2"
     inkscape:window-width="1920"
     inkscape:window-height="1032"
     id="namedview58"
     showgrid="false"
     inkscape:zoom="0.67428571"
     inkscape:cx="140.18522"
     inkscape:cy="351.30404"
     inkscape:window-x="0"
     inkscape:window-y="0"
     inkscape:window-maximized="1"
     inkscape:current-layer="svg2" />
  <path
     fill="none"
     stroke="#000"
     d="M36,115l-24.5,-12.5V20.5H94.5l24.5,12.5 M11.5,20.5l24.5,12.5"
     id="path4" />
  <path
     fill="none"
     stroke="#000"
     stroke-dasharray="5,4"
     d="M11.5,102.5H94.5V20.5 M94.5,102.5l24.5,12.5"
     id="path6" />
  <g
     fill="none"
     stroke="#000"
     opacity=".4"
     stroke-width=".5"
     id="g8">
    <path
       d="M11.5,20.5L94.5,102.5  M11.5,102.5L94.5,20.5"
       id="path10" />
    <path
       d="M94.5,20.5L119,115  M119,33L94.5,102.5"
       id="path12" />
    <path
       d="M11.5,102.5L119,115  M94.5,102.5L36,115"
       id="path14" />
  </g>
  <path
     fill="none"
     stroke="#000"
     d="M36,33V115H119V33H36"
     id="path16" />
  <g
     fill="none"
     stroke-width=".5"
     stroke="#000"
     id="g18">
    <path
       d="M36,33L119,115  M119,33L36,115"
       id="path20" />
    <path
       d="M36,33L11.5,102.5  M11.5,20.5L36,115"
       id="path22" />
    <path
       d="M36,33L94.5,20.5  M11.5,20.5L119,33"
       id="path24" />
  </g>
  <g
     fill="#000"
     stroke="none"
     id="g26">
    <circle
       cx="36"
       cy="33"
       r="3"
       id="circle28" />
    <circle
       cx="119"
       cy="33"
       r="3"
       id="circle30" />
    <circle
       cx="11.5"
       cy="102.5"
       r="3"
       id="circle32" />
    <circle
       cx="94.5"
       cy="102.5"
       r="3"
       id="circle34" />
    <circle
       cx="94.5"
       cy="20.5"
       r="3"
       id="circle36" />
    <circle
       cx="11.5"
       cy="20.5"
       r="3"
       id="circle38" />
    <circle
       cx="119"
       cy="115"
       r="3"
       id="circle40" />
    <circle
       cx="23.75"
       cy="67.75"
       r="3"
       id="circle42"
       style="fill:#ff0000;fill-opacity:1" />
    <circle
       cx="77.5"
       cy="74"
       r="3"
       id="circle44"
       style="fill:#ff0000;fill-opacity:1" />
    <circle
       cx="65.25"
       cy="26.75"
       r="3"
       id="circle46"
       style="fill:#ff0000;fill-opacity:1" />
    <circle
       cx="65.25"
       cy="108.75"
       r="3"
       id="circle48"
       style="fill:#ff0000;fill-opacity:1" />
  </g>
  <g
     fill="#f00"
     stroke="none"
     id="g50">
    <circle
       cx="36"
       cy="115"
       r="3"
       id="circle52"
       style="fill:#000000;fill-opacity:1" />
    <circle
       cx="106.75"
       cy="67.75"
       r="3"
       id="circle54" />
    <circle
       cx="53"
       cy="61.5"
       r="3"
       id="circle56" />
  </g>
</svg>
