<?xml version="1.0" encoding="UTF-8" standalone="no"?>
<!-- Created with Inkscape (http://www.inkscape.org/) -->

<svg
   xmlns:dc="http://purl.org/dc/elements/1.1/"
   xmlns:cc="http://creativecommons.org/ns#"
   xmlns:rdf="http://www.w3.org/1999/02/22-rdf-syntax-ns#"
   xmlns:svg="http://www.w3.org/2000/svg"
   xmlns="http://www.w3.org/2000/svg"
   xmlns:sodipodi="http://sodipodi.sourceforge.net/DTD/sodipodi-0.dtd"
   xmlns:inkscape="http://www.inkscape.org/namespaces/inkscape"
   width="210mm"
   height="297mm"
   id="svg4405"
   version="1.1"
   inkscape:version="0.48.3.1 r9886"
   sodipodi:docname="relDie.svg">
  <sodipodi:namedview
     id="base"
     pagecolor="#ffffff"
     bordercolor="#666666"
     borderopacity="1.0"
     inkscape:pageopacity="0.0"
     inkscape:pageshadow="2"
     inkscape:zoom="0.7"
     inkscape:cx="396.49307"
     inkscape:cy="782.39522"
     inkscape:document-units="px"
     inkscape:current-layer="layer1"
     showgrid="false"
     inkscape:window-width="1920"
     inkscape:window-height="1032"
     inkscape:window-x="0"
     inkscape:window-y="0"
     inkscape:window-maximized="1" />
  <defs
     id="defs4407">
    <clipPath
       id="clipPath1122"
       clipPathUnits="userSpaceOnUse">
      <path
         id="path1124"
         d="m 260.52,400.34 31.56,0 0,11.22 -31.56,0 0,-11.22 z"
         inkscape:connector-curvature="0" />
    </clipPath>
  </defs>
  <metadata
     id="metadata4410">
    <rdf:RDF>
      <cc:Work
         rdf:about="">
        <dc:format>image/svg+xml</dc:format>
        <dc:type
           rdf:resource="http://purl.org/dc/dcmitype/StillImage" />
        <dc:title />
      </cc:Work>
    </rdf:RDF>
  </metadata>
  <g
     id="layer1"
     inkscape:groupmode="layer"
     inkscape:label="Ebene 1">
    <g
       transform="matrix(1.25,0,0,-1.25,130.63341,448.0805)"
       id="g586">
      <path
         id="path588"
         style="fill:#1f1a17;fill-opacity:1;fill-rule:evenodd;stroke:none"
         d="m 0,0 3.12,-6.24 -6.24,0 L 0,0"
         inkscape:connector-curvature="0" />
    </g>
    <g
       transform="matrix(1.25,0,0,-1.1809722,130.50714,626.49539)"
       id="g590">
      <path
         id="path592"
         style="fill:#1f1a17;fill-opacity:1;fill-rule:nonzero;stroke:none"
         d="m 0,0 0.24,-0.24 0,146.1 -0.48,0 0,-146.1 0.24,-0.24 -0.24,0.24 0,-0.24 0.24,0"
         inkscape:connector-curvature="0" />
    </g>
    <g
       transform="matrix(1.25,0,0,-1.25,471.90714,626.46226)"
       id="g594">
      <path
         id="path596"
         style="fill:#1f1a17;fill-opacity:1;fill-rule:nonzero;stroke:none"
         d="M 0,0 0,0.24 -273.12,0 l 0,-0.48 L 0,-0.24 0,0"
         inkscape:connector-curvature="0" />
    </g>
    <g
       transform="matrix(1.25,0,0,-1.25,479.10714,626.46226)"
       id="g598">
      <path
         id="path600"
         style="fill:#1f1a17;fill-opacity:1;fill-rule:evenodd;stroke:none"
         d="M 0,0 -6,3.12 -6,-3.12 0,0"
         inkscape:connector-curvature="0" />
    </g>
    <g
       transform="matrix(1.25,0,0,-1.25,180.23214,489.75155)"
       id="g610">
      <path
         id="path612"
         style="fill:#dc2b19;fill-opacity:1;fill-rule:nonzero;stroke:none"
         d="M 0,0 -1.68,1.44 -6,3.36 l -2.4,0.48 -2.64,0.72 -2.82,0.24 -2.64,0.24 -3.12,0.24 -5.76,0.24 -5.52,-0.24 -4.8,0 -3.84,-0.24 0,-0.96 3.84,0 4.8,0.24 5.52,0 5.76,-0.24 2.88,0 2.88,-0.24 2.58,-0.48 2.64,-0.48 2.4,-0.72 2.16,-0.72 1.68,-0.96 1.68,-1.2"
         inkscape:connector-curvature="0" />
    </g>
    <g
       transform="matrix(1.25,0,0,-1.25,249.83214,512.25155)"
       id="g614">
      <path
         id="path616"
         style="fill:#dc2b19;fill-opacity:1;fill-rule:nonzero;stroke:none"
         d="m 0,0 -16.08,0.24 -11.52,0.72 -4.08,0.24 -3.36,0.48 -2.64,0.72 -2.16,0.72 -1.92,0.96 -1.44,1.2 -3.12,3.12 -3.6,4.08 -5.76,5.52 -0.72,-0.72 5.52,-5.52 3.84,-4.08 1.44,-1.92 1.68,-1.44 1.68,-1.2 1.92,-0.96 2.16,-0.96 2.88,-0.48 3.36,-0.48 4.32,-0.48 11.28,-0.48 L 0,-1.2"
         inkscape:connector-curvature="0" />
    </g>
    <g
       transform="matrix(1.25,0,0,-1.25,161.40714,618.66226)"
       id="g618">
      <path
         id="path620"
         style="fill:#009240;fill-opacity:1;fill-rule:nonzero;stroke:none"
         d="m 0,0 -0.72,-0.72 c -5.857,-3.619 -15.335,-3.45 -22.08,-3.6 l -2.88,0 0,-1.2 2.88,0 c 6.826,0.015 16.799,0.282 22.8,3.84 l 0.96,0.96"
         inkscape:connector-curvature="0" />
    </g>
    <g
       transform="matrix(1.25,0,0,-1.25,176.63214,571.26226)"
       id="g622">
      <path
         id="path624"
         style="fill:#009240;fill-opacity:1;fill-rule:nonzero;stroke:none"
         d="m 0,0 -0.72,0 -0.72,-0.48 -0.48,-0.48 -0.48,-0.72 -0.72,-1.68 -0.72,-2.16 -1.44,-5.28 -2.4,-12.96 -1.44,-6.24 -0.72,-2.64 -0.66,-2.4 -0.72,-1.68 -0.96,-1.2 0.96,-0.72 0.96,1.44 0.66,1.92 0.96,2.4 0.72,2.64 1.2,6.24 2.4,12.96 1.44,5.28 0.72,2.16 0.72,1.44 0.48,0.48 0.24,0.48 0.72,0"
         inkscape:connector-curvature="0" />
    </g>
    <g
       transform="matrix(1.25,0,0,-1.25,190.13214,619.56226)"
       id="g626">
      <path
         id="path628"
         style="fill:#009240;fill-opacity:1;fill-rule:nonzero;stroke:none"
         d="m 0,0 -0.96,1.2 -0.72,1.92 -0.72,2.16 -0.48,2.88 -0.96,6.24 -0.72,6.72 -0.96,6.24 -0.96,5.52 -0.72,2.4 -0.96,1.68 -0.48,0.72 -1.44,0.96 -0.72,0 0,-1.2 0.48,0 0.24,-0.24 0.48,-0.24 0.48,-0.48 0.72,-1.68 0.72,-2.16 1.2,-5.28 0.72,-6.48 0.96,-6.72 0.72,-6.24 0.72,-2.88 0.72,-2.4 0.72,-1.92 0.96,-1.44"
         inkscape:connector-curvature="0" />
    </g>
    <g
       transform="matrix(1.25,0,0,-1.25,242.33214,623.76226)"
       id="g630">
      <path
         id="path632"
         style="fill:#009240;fill-opacity:1;fill-rule:nonzero;stroke:none"
         d="m 0,0 -19.44,0 -6.24,0.24 -5.52,0.24 -4.8,0.48 -1.92,0.48 -1.68,0.48 -1.44,0.72 -0.72,0.72 -0.96,-0.72 1.2,-0.96 1.44,-0.72 1.68,-0.48 2.16,-0.48 5.04,-0.72 5.52,-0.24 6.24,-0.24 13.2,0 6.24,0.24"
         inkscape:connector-curvature="0" />
    </g>
    <g
       transform="matrix(1.25,0,0,-1.25,272.85714,507.75155)"
       id="g634">
      <path
         id="path636"
         style="fill:#dc2b19;fill-opacity:1;fill-rule:nonzero;stroke:none"
         d="m 0,0 -1.44,-1.44 -1.44,-1.2 -1.68,-0.72 -2.16,-0.24 -2.64,-0.24 -10.26,0 0,-1.2 3.84,0 c 4.523,0.134 11.398,-0.762 15.06,2.64 l 1.68,1.68"
         inkscape:connector-curvature="0" />
    </g>
    <g
       transform="matrix(1.25,0,0,-1.25,281.85714,500.55155)"
       id="g638">
      <path
         id="path640"
         style="fill:#dc2b19;fill-opacity:1;fill-rule:nonzero;stroke:none"
         d="M 0,0 0,6.24 -0.24,8.16 -0.48,9.12 -0.96,9.6 -1.44,9.84 -1.92,9.6 C -4.104,5.777 -4.374,0.389 -6.24,-3.84 l -0.96,-1.92 0.96,-0.72 1.2,2.4 0.96,3.36 0.96,3.84 0.96,3.36 0.48,1.2 0.48,0.96 -0.48,0 0,0.24 0.24,-0.96 0.24,-1.68 0,-2.64 0.24,-3.6"
         inkscape:connector-curvature="0" />
    </g>
    <g
       transform="matrix(1.25,0,0,-1.25,282.15714,542.85155)"
       id="g642">
      <path
         id="path644"
         style="fill:#dc2b19;fill-opacity:1;fill-rule:nonzero;stroke:none"
         d="M 0,0 0.48,0 0.24,0.48 C -0.248,8.782 -0.3,17.116 -0.24,25.44 l 0,8.4 -0.96,0 0,-8.4 C -0.875,17.29 -1.808,7.495 -0.72,-0.48 l 0.48,-0.48 0.96,0.24"
         inkscape:connector-curvature="0" />
    </g>
    <g
       transform="matrix(1.25,0,0,-1.25,289.65714,531.75155)"
       id="g646">
      <path
         id="path648"
         style="fill:#dc2b19;fill-opacity:1;fill-rule:nonzero;stroke:none"
         d="M 0,0 -1.92,-2.4 -3.12,-4.32 -4.08,-5.76 -4.8,-6.72 -5.04,-7.68 -5.76,-8.4 -6,-8.88 l 0.72,-0.72 0.48,0.48 0.24,0.48 0.48,0.48 0.24,0.96 0.72,0.96 0.96,1.44 1.2,1.68 1.92,2.4"
         inkscape:connector-curvature="0" />
    </g>
    <g
       transform="matrix(1.25,0,0,-1.25,359.48214,519.45155)"
       id="g650">
      <path
         id="path652"
         style="fill:#dc2b19;fill-opacity:1;fill-rule:nonzero;stroke:none"
         d="m 0,0 -10.08,-0.24 -9.54,-0.48 -8.64,-0.48 -7.92,-0.96 -6.72,-1.44 -2.88,-0.72 -2.64,-0.96 -2.4,-0.96 -1.92,-1.2 -1.68,-1.2 -1.44,-1.2 0.96,-0.72 1.2,1.2 1.44,0.96 1.92,1.2 2.16,0.96 2.64,0.72 2.88,0.72 3.12,0.72 3.6,0.72 7.68,0.96 8.64,0.72 9.54,0.24 L 0,-1.2"
         inkscape:connector-curvature="0" />
    </g>
    <g
       transform="matrix(1.25,0,0,-1.25,262.95714,619.86226)"
       id="g654">
      <path
         id="path656"
         style="fill:#009240;fill-opacity:1;fill-rule:nonzero;stroke:none"
         d="m 0,0 -1.68,-0.96 c -4.618,-2.435 -10.221,-2.155 -15.3,-2.16 l -2.64,0 0,-1.2 2.64,0 c 5.293,0.158 10.806,0.101 15.78,2.16 l 1.92,1.2"
         inkscape:connector-curvature="0" />
    </g>
    <g
       transform="matrix(1.25,0,0,-1.25,277.95714,582.96226)"
       id="g658">
      <path
         id="path660"
         style="fill:#009240;fill-opacity:1;fill-rule:nonzero;stroke:none"
         d="m 0,0 -0.48,-0.24 -0.72,-0.24 -0.48,-0.24 -0.48,-0.72 -0.96,-1.2 -0.72,-1.68 -1.2,-4.32 -1.44,-4.8 -1.2,-5.28 -1.2,-4.8 -1.44,-3.84 -0.96,-1.2 -0.72,-0.96 0.72,-0.96 0.96,1.2 0.96,1.44 0.72,1.92 0.72,2.16 1.44,4.8 2.4,10.08 1.44,4.08 0.72,1.68 0.72,1.2 0.24,0.24 0.48,0.24 0.24,0.24 0.24,0"
         inkscape:connector-curvature="0" />
    </g>
    <g
       transform="matrix(1.25,0,0,-1.25,291.45714,620.76226)"
       id="g662">
      <path
         id="path664"
         style="fill:#009240;fill-opacity:1;fill-rule:nonzero;stroke:none"
         d="M 0,0 -0.72,0.96 C -4.754,7.104 -3.577,27.662 -9.84,30 l -0.96,0.24 0,-1.2 0.48,0 0.96,-0.48 0.48,-0.48 0.72,-1.2 0.72,-1.44 0.96,-4.32 0.96,-5.04 0.72,-5.04 0.96,-5.04 0.72,-2.16 0.48,-1.92 0.96,-1.44 0.96,-1.2"
         inkscape:connector-curvature="0" />
    </g>
    <g
       transform="matrix(1.25,0,0,-1.25,354.68214,624.06226)"
       id="g666">
      <path
         id="path668"
         style="fill:#009240;fill-opacity:1;fill-rule:nonzero;stroke:none"
         d="m 0,0 -22.02,0 -7.92,0.24 -7.2,0.24 -6.24,0.48 -2.64,0.24 -1.92,0.48 -1.68,0.48 -0.96,0.48 -0.72,-0.72 1.2,-0.72 1.92,-0.48 2.16,-0.48 2.64,-0.48 6.24,-0.48 7.2,-0.24 7.68,-0.24 22.26,0"
         inkscape:connector-curvature="0" />
    </g>
    <g
       transform="matrix(1.25,0,0,-1.25,385.88214,514.65155)"
       id="g670">
      <path
         id="path672"
         style="fill:#dc2b19;fill-opacity:1;fill-rule:nonzero;stroke:none"
         d="M 0,0 -1.44,-1.44 -3.36,-2.4 -6,-3.36 l -2.88,-0.48 -3.36,-0.24 -12,0 0,-1.2 8.4,0 3.6,0.24 3.36,0.24 3.12,0.48 2.64,0.72 1.2,0.72 1.2,0.48 0.96,0.96 0.72,0.96"
         inkscape:connector-curvature="0" />
    </g>
    <g
       transform="matrix(1.25,0,0,-1.25,395.18214,507.15155)"
       id="g674">
      <path
         id="path676"
         style="fill:#dc2b19;fill-opacity:1;fill-rule:nonzero;stroke:none"
         d="m 0,0 -0.24,3.84 0,2.64 L -0.48,8.4 -0.72,9.36 -1.2,9.84 -1.68,10.08 -2.16,9.6 C -4.142,6.907 -4.868,-0.629 -6.48,-3.84 L -7.44,-6 l 0.96,-0.48 1.2,2.4 0.96,3.36 1.2,4.08 0.96,3.36 0.24,1.2 0.48,0.96 -0.48,0 0,0.24 0.24,-0.96 0.24,-1.68 0.24,-2.64 0,-3.84"
         inkscape:connector-curvature="0" />
    </g>
    <g
       transform="matrix(1.25,0,0,-1.25,395.18214,550.05155)"
       id="g678">
      <path
         id="path680"
         style="fill:#dc2b19;fill-opacity:1;fill-rule:nonzero;stroke:none"
         d="M 0,0 0.48,0 0.24,0.48 C -0.327,8.623 0.179,17.478 0,25.68 l 0,8.64 -1.2,0 0,-30.72 0.24,-2.64 0.48,-1.44 0.24,-0.48 0.96,0"
         inkscape:connector-curvature="0" />
    </g>
    <g
       transform="matrix(1.25,0,0,-1.25,402.68214,538.95155)"
       id="g682">
      <path
         id="path684"
         style="fill:#dc2b19;fill-opacity:1;fill-rule:nonzero;stroke:none"
         d="m 0,0 -1.92,-2.4 c -1.585,-2.635 -2.44,-3.438 -3.6,-6.24 L -6,-8.88 l 0.72,-0.96 0.96,0.96 0.24,0.72 0.48,0.72 0.48,1.2 0.96,1.2 1.2,1.92 1.92,2.4"
         inkscape:connector-curvature="0" />
    </g>
    <g
       transform="matrix(1.25,0,0,-1.25,478.50714,526.35155)"
       id="g686">
      <path
         id="path688"
         style="fill:#dc2b19;fill-opacity:1;fill-rule:nonzero;stroke:none"
         d="M 0,0 -10.32,0 -20.4,-0.48 -30,-1.2 l -8.58,-0.96 -3.84,-0.72 -3.6,-0.72 -3.36,-0.96 -3.12,-0.72 -2.64,-0.96 -2.16,-1.2 -1.92,-1.2 -1.44,-1.44 0.96,-0.72 1.2,1.2 1.68,1.2 2.16,0.96 2.64,0.96 2.88,0.96 3.36,0.72 3.6,0.72 3.84,0.72 8.58,0.96 9.36,0.72 10.08,0.48 L 0,-0.96"
         inkscape:connector-curvature="0" />
    </g>
    <g
       transform="matrix(1.25,0,0,-1.25,375.68214,621.36226)"
       id="g690">
      <path
         id="path692"
         style="fill:#009240;fill-opacity:1;fill-rule:nonzero;stroke:none"
         d="m 0,0 -1.92,-0.72 c -6.951,-1.37 -14.059,-1.525 -21.12,-1.44 l -2.82,0 -0.24,-1.2 3.06,0 c 6.431,0.002 15.218,-0.129 21.36,1.68 l 2.16,0.72"
         inkscape:connector-curvature="0" />
    </g>
    <g
       transform="matrix(1.25,0,0,-1.25,390.68214,596.16226)"
       id="g694">
      <path
         id="path696"
         style="fill:#009240;fill-opacity:1;fill-rule:nonzero;stroke:none"
         d="m 0,0 -1.2,-0.24 c -4.603,-1.636 -5.516,-14.136 -10.08,-19.2 l -0.72,-0.72 0.48,-0.96 1.92,1.92 0.72,1.2 0.72,1.68 1.44,3.12 1.2,3.6 1.2,3.36 1.44,2.64 0.72,1.2 0.72,0.72 0.72,0.48 0.72,0"
         inkscape:connector-curvature="0" />
    </g>
    <g
       transform="matrix(1.25,0,0,-1.25,403.88214,621.66226)"
       id="g698">
      <path
         id="path700"
         style="fill:#009240;fill-opacity:1;fill-rule:nonzero;stroke:none"
         d="m 0,0 -0.72,0.48 c -4.287,4.757 -2.573,16.756 -8.64,19.68 l -1.2,0.24 0,-1.2 0.96,0 0.72,-0.48 1.44,-1.92 1.2,-2.88 0.72,-3.36 0.96,-3.36 0.72,-3.36 0.72,-1.68 1.44,-2.4 1.2,-0.72"
         inkscape:connector-curvature="0" />
    </g>
    <g
       transform="matrix(1.25,0,0,-1.25,467.10714,624.06226)"
       id="g702">
      <path
         id="path704"
         style="fill:#009240;fill-opacity:1;fill-rule:nonzero;stroke:none"
         d="m 0,0 -6.72,0 c -14.446,0.151 -28.549,-0.649 -42.9,1.44 l -0.96,0.48 -0.48,-0.96 1.2,-0.48 1.68,-0.48 2.16,-0.24 2.64,-0.24 6.24,-0.48 7.2,-0.24 29.94,0"
         inkscape:connector-curvature="0" />
    </g>
    <text
       id="text706"
       transform="scale(1.0121034,0.98804135)"
       x="164.72414"
       y="545.6189"
       style="font-size:14.82062054px">
      <tspan
         id="tspan708"
         sodipodi:role="line"
         y="545.6189"
         x="164.72414 173.05644 179.8717 186.07503 189.33733 196.44962 199.10892 201.76822 205.32756 212.14282 218.95807 223.10765"
         style="font-size:12.74832726px;font-variant:normal;font-weight:normal;font-stretch:normal;writing-mode:lr-tb;fill:#000000;fill-opacity:1;fill-rule:nonzero;stroke:none;font-family:Arial;-inkscape-font-specification:ArialMT">Ausfall der</tspan>
      <tspan
         id="tspan710"
         sodipodi:role="line"
         y="559.8894"
         x="164.72414 174.21144 178.36102 181.32246 188.13771 194.95297 198.5123 201.17798 207.99324 212.14282 218.95807 225.77333 232.58858 238.81358"
         style="font-size:12.74832726px;font-variant:normal;font-weight:normal;font-stretch:normal;writing-mode:lr-tb;fill:#000000;fill-opacity:1;fill-rule:nonzero;stroke:none;font-family:Arial;-inkscape-font-specification:ArialMT">Orientierungs-</tspan>
      <tspan
         id="tspan712"
         sodipodi:role="line"
         y="574.08466"
         x="164.72414 171.5394 178.35464 181.31609 188.13135 192.28091 194.94659 201.1716 207.98686 211.54619 214.21187 221.02711"
         style="font-size:12.74832726px;font-variant:normal;font-weight:normal;font-stretch:normal;writing-mode:lr-tb;fill:#000000;fill-opacity:1;fill-rule:nonzero;stroke:none;font-family:Arial;-inkscape-font-specification:ArialMT">polarisation</tspan>
      <tspan
         id="tspan714"
         sodipodi:role="line"
         y="563.5329"
         x="281.14062 289.47293 296.28818 302.49152 305.75381 312.86609 315.52539 318.18469 321.74405 328.5593 335.37454 339.52411"
         style="font-size:12.74832726px;font-variant:normal;font-weight:normal;font-stretch:normal;writing-mode:lr-tb;fill:#000000;fill-opacity:1;fill-rule:nonzero;stroke:none;font-family:Arial;-inkscape-font-specification:ArialMT">Ausfall der</tspan>
      <tspan
         id="tspan716"
         sodipodi:role="line"
         y="577.72815"
         x="281.14062 284.69995 291.5152 298.33044 305.14572 311.96097 315.52029"
         style="font-size:12.74832726px;font-variant:normal;font-weight:normal;font-stretch:normal;writing-mode:lr-tb;fill:#000000;fill-opacity:1;fill-rule:nonzero;stroke:none;font-family:Arial;-inkscape-font-specification:ArialMT">Ionen -</tspan>
      <tspan
         id="tspan718"
         sodipodi:role="line"
         y="591.69519"
         x="281.14062 287.95587 294.77115 297.73257 304.54782 308.69739 311.36307 317.58807 324.40332 327.96265 330.62833 337.4436"
         style="font-size:12.74832726px;font-variant:normal;font-weight:normal;font-stretch:normal;writing-mode:lr-tb;fill:#000000;fill-opacity:1;fill-rule:nonzero;stroke:none;font-family:Arial;-inkscape-font-specification:ArialMT">polarisation</tspan>
      <tspan
         id="tspan720"
         sodipodi:role="line"
         y="571.04797"
         x="393.70325 402.03555 408.8508 415.05414 418.31647 425.42874 428.08804 430.74734 434.30667 441.048 447.86325 452.01282"
         style="font-size:12.74832726px;font-variant:normal;font-weight:normal;font-stretch:normal;writing-mode:lr-tb;fill:#000000;fill-opacity:1;fill-rule:nonzero;stroke:none;font-family:Arial;-inkscape-font-specification:ArialMT">Ausfall der</tspan>
      <tspan
         id="tspan722"
         sodipodi:role="line"
         y="585.01508"
         x="393.70325 402.00241 404.66809 411.48334 417.70834 421.26767 425.41727 432.23251 438.97385 445.78909 452.60434 456.16367"
         style="font-size:12.74832726px;font-variant:normal;font-weight:normal;font-stretch:normal;writing-mode:lr-tb;fill:#000000;fill-opacity:1;fill-rule:nonzero;stroke:none;font-family:Arial;-inkscape-font-specification:ArialMT">Elektronen -</tspan>
      <tspan
         id="tspan724"
         sodipodi:role="line"
         y="599.28552"
         x="393.70325 400.51849 407.33374 410.2952 417.11047 421.26004 423.92572 430.15073 436.89203 440.45135 443.11703 449.93231"
         style="font-size:12.74832726px;font-variant:normal;font-weight:normal;font-stretch:normal;writing-mode:lr-tb;fill:#000000;fill-opacity:1;fill-rule:nonzero;stroke:none;font-family:Arial;-inkscape-font-specification:ArialMT">polarisation</tspan>
      <tspan
         y="0"
         x="164.72414"
         id="tspan726"
         sodipodi:role="line"
         style="font-size:12.74832726px;font-variant:normal;font-weight:normal;font-stretch:normal;writing-mode:lr-tb;fill:#000000;fill-opacity:1;fill-rule:nonzero;stroke:none;font-family:Arial;-inkscape-font-specification:ArialMT" />
      <tspan
         id="tspan4972"
         sodipodi:role="line"
         y="465.15656"
         x="305.44656 313.78268 316.44583 322.65298 329.46823 333.02759 339.84283 346.58414 350.73373 357.54898"
         style="font-size:12.74832726px;font-variant:normal;font-weight:normal;font-stretch:normal;writing-mode:lr-tb;fill:#000000;fill-opacity:1;fill-rule:nonzero;stroke:none;font-family:Arial;-inkscape-font-specification:ArialMT" />
      <tspan
         id="tspan4966"
         sodipodi:role="line"
         y="465.15656 465.15656 465.15656"
         x="305.44656 305.44656 305.44656 313.78268 316.44583 322.65298 329.46823 333.02759 339.84283 346.58414 350.73373 357.54898"
         style="font-size:12.74832726px;font-variant:normal;font-weight:normal;font-stretch:normal;writing-mode:lr-tb;fill:#000000;fill-opacity:1;fill-rule:nonzero;stroke:none;font-family:Arial;-inkscape-font-specification:ArialMT" />
      <tspan
         y="0"
         id="tspan728"
         sodipodi:role="line"
         x="164.72414"
         style="font-size:12.74832726px;font-variant:normal;font-weight:normal;font-stretch:normal;writing-mode:lr-tb;fill:#000000;fill-opacity:1;fill-rule:nonzero;stroke:none;font-family:Arial;-inkscape-font-specification:ArialMT" />
    </text>
    <path
       id="path752"
       style="fill:#1f1a17;fill-opacity:1;fill-rule:nonzero;stroke:none"
       d="m 176.93214,481.65155 0.60001,0 0,-1.5 -0.60001,0 0,1.5 z"
       inkscape:connector-curvature="0" />
    <path
       id="path754"
       style="fill:#1f1a17;fill-opacity:1;fill-rule:nonzero;stroke:none"
       d="m 176.93214,485.25155 0.60001,0 0,-1.5 -0.60001,0 0,1.5 z"
       inkscape:connector-curvature="0" />
    <path
       id="path756"
       style="fill:#1f1a17;fill-opacity:1;fill-rule:nonzero;stroke:none"
       d="m 176.93214,488.55155 0.60001,0 0,-1.20003 -0.60001,0 0,1.20003 z"
       inkscape:connector-curvature="0" />
    <path
       id="path758"
       style="fill:#1f1a17;fill-opacity:1;fill-rule:nonzero;stroke:none"
       d="m 176.93214,492.15155 0.60001,0 0,-1.5 -0.60001,0 0,1.5 z"
       inkscape:connector-curvature="0" />
    <path
       id="path760"
       style="fill:#1f1a17;fill-opacity:1;fill-rule:nonzero;stroke:none"
       d="m 176.93214,495.75155 0.60001,0 0,-1.5 -0.60001,0 0,1.5 z"
       inkscape:connector-curvature="0" />
    <path
       id="path762"
       style="fill:#1f1a17;fill-opacity:1;fill-rule:nonzero;stroke:none"
       d="m 176.93214,499.35155 0.60001,0 0,-1.5 -0.60001,0 0,1.5 z"
       inkscape:connector-curvature="0" />
    <path
       id="path764"
       style="fill:#1f1a17;fill-opacity:1;fill-rule:nonzero;stroke:none"
       d="m 176.93214,502.95155 0.60001,0 0,-1.5 -0.60001,0 0,1.5 z"
       inkscape:connector-curvature="0" />
    <path
       id="path766"
       style="fill:#1f1a17;fill-opacity:1;fill-rule:nonzero;stroke:none"
       d="m 176.93214,506.25155 0.60001,0 0,-1.20003 -0.60001,0 0,1.20003 z"
       inkscape:connector-curvature="0" />
    <path
       id="path768"
       style="fill:#1f1a17;fill-opacity:1;fill-rule:nonzero;stroke:none"
       d="m 176.93214,509.85155 0.60001,0 0,-1.20003 -0.60001,0 0,1.20003 z"
       inkscape:connector-curvature="0" />
    <path
       id="path770"
       style="fill:#1f1a17;fill-opacity:1;fill-rule:nonzero;stroke:none"
       d="m 176.93214,513.45155 0.60001,0 0,-1.5 -0.60001,0 0,1.5 z"
       inkscape:connector-curvature="0" />
    <path
       id="path772"
       style="fill:#1f1a17;fill-opacity:1;fill-rule:nonzero;stroke:none"
       d="m 176.93214,517.05155 0.60001,0 0,-1.5 -0.60001,0 0,1.5 z"
       inkscape:connector-curvature="0" />
    <path
       id="path774"
       style="fill:#1f1a17;fill-opacity:1;fill-rule:nonzero;stroke:none"
       d="m 176.93214,520.65155 0.60001,0 0,-1.5 -0.60001,0 0,1.5 z"
       inkscape:connector-curvature="0" />
    <path
       id="path776"
       style="fill:#1f1a17;fill-opacity:1;fill-rule:nonzero;stroke:none"
       d="m 176.93214,524.25155 0.60001,0 0,-1.5 -0.60001,0 0,1.5 z"
       inkscape:connector-curvature="0" />
    <path
       id="path778"
       style="fill:#1f1a17;fill-opacity:1;fill-rule:nonzero;stroke:none"
       d="m 176.93214,527.55155 0.60001,0 0,-1.19995 -0.60001,0 0,1.19995 z"
       inkscape:connector-curvature="0" />
    <path
       id="path780"
       style="fill:#1f1a17;fill-opacity:1;fill-rule:nonzero;stroke:none"
       d="m 176.93214,531.15155 0.60001,0 0,-1.5 -0.60001,0 0,1.5 z"
       inkscape:connector-curvature="0" />
    <path
       id="path782"
       style="fill:#1f1a17;fill-opacity:1;fill-rule:nonzero;stroke:none"
       d="m 176.93214,534.75155 0.60001,0 0,-1.5 -0.60001,0 0,1.5 z"
       inkscape:connector-curvature="0" />
    <path
       id="path784"
       style="fill:#1f1a17;fill-opacity:1;fill-rule:nonzero;stroke:none"
       d="m 176.93214,538.35155 0.60001,0 0,-1.5 -0.60001,0 0,1.5 z"
       inkscape:connector-curvature="0" />
    <path
       id="path786"
       style="fill:#1f1a17;fill-opacity:1;fill-rule:nonzero;stroke:none"
       d="m 176.93214,541.95155 0.60001,0 0,-1.5 -0.60001,0 0,1.5 z"
       inkscape:connector-curvature="0" />
    <path
       id="path788"
       style="fill:#1f1a17;fill-opacity:1;fill-rule:nonzero;stroke:none"
       d="m 176.93214,545.25155 0.60001,0 0,-1.20002 -0.60001,0 0,1.20002 z"
       inkscape:connector-curvature="0" />
    <path
       id="path790"
       style="fill:#1f1a17;fill-opacity:1;fill-rule:nonzero;stroke:none"
       d="m 176.93214,548.85155 0.60001,0 0,-1.20002 -0.60001,0 0,1.20002 z"
       inkscape:connector-curvature="0" />
    <path
       id="path792"
       style="fill:#1f1a17;fill-opacity:1;fill-rule:nonzero;stroke:none"
       d="m 176.93214,552.45155 0.60001,0 0,-1.5 -0.60001,0 0,1.5 z"
       inkscape:connector-curvature="0" />
    <path
       id="path794"
       style="fill:#1f1a17;fill-opacity:1;fill-rule:nonzero;stroke:none"
       d="m 176.93214,556.05155 0.60001,0 0,-1.5 -0.60001,0 0,1.5 z"
       inkscape:connector-curvature="0" />
    <path
       id="path796"
       style="fill:#1f1a17;fill-opacity:1;fill-rule:nonzero;stroke:none"
       d="m 176.93214,559.65155 0.60001,0 0,-1.5 -0.60001,0 0,1.5 z"
       inkscape:connector-curvature="0" />
    <path
       id="path798"
       style="fill:#1f1a17;fill-opacity:1;fill-rule:nonzero;stroke:none"
       d="m 176.93214,542.23726 0.60001,0 0,-1.19999 -0.60001,0 0,1.19999 z"
       inkscape:connector-curvature="0" />
    <path
       id="path800"
       style="fill:#1f1a17;fill-opacity:1;fill-rule:nonzero;stroke:none"
       d="m 176.93214,545.76226 0.60001,0 0,-1.12499 -0.60001,0 0,1.12499 z"
       inkscape:connector-curvature="0" />
    <path
       id="path802"
       style="fill:#1f1a17;fill-opacity:1;fill-rule:nonzero;stroke:none"
       d="m 176.93214,549.36226 0.60001,0 0,-1.5 -0.60001,0 0,1.5 z"
       inkscape:connector-curvature="0" />
    <path
       id="path804"
       style="fill:#1f1a17;fill-opacity:1;fill-rule:nonzero;stroke:none"
       d="m 176.93214,552.96226 0.60001,0 0,-1.5 -0.60001,0 0,1.5 z"
       inkscape:connector-curvature="0" />
    <path
       id="path806"
       style="fill:#1f1a17;fill-opacity:1;fill-rule:nonzero;stroke:none"
       d="m 176.93214,556.56226 0.60001,0 0,-1.5 -0.60001,0 0,1.5 z"
       inkscape:connector-curvature="0" />
    <path
       id="path808"
       style="fill:#1f1a17;fill-opacity:1;fill-rule:nonzero;stroke:none"
       d="m 176.93214,560.16226 0.60001,0 0,-1.5 -0.60001,0 0,1.5 z"
       inkscape:connector-curvature="0" />
    <path
       id="path810"
       style="fill:#1f1a17;fill-opacity:1;fill-rule:nonzero;stroke:none"
       d="m 176.93214,563.46226 0.60001,0 0,-1.19999 -0.60001,0 0,1.19999 z"
       inkscape:connector-curvature="0" />
    <path
       id="path812"
       style="fill:#1f1a17;fill-opacity:1;fill-rule:nonzero;stroke:none"
       d="m 176.93214,567.06226 0.60001,0 0,-1.5 -0.60001,0 0,1.5 z"
       inkscape:connector-curvature="0" />
    <path
       id="path814"
       style="fill:#1f1a17;fill-opacity:1;fill-rule:nonzero;stroke:none"
       d="m 176.93214,570.66226 0.60001,0 0,-1.5 -0.60001,0 0,1.5 z"
       inkscape:connector-curvature="0" />
    <path
       id="path816"
       style="fill:#1f1a17;fill-opacity:1;fill-rule:nonzero;stroke:none"
       d="m 176.93214,574.26226 0.60001,0 0,-1.5 -0.60001,0 0,1.5 z"
       inkscape:connector-curvature="0" />
    <path
       id="path818"
       style="fill:#1f1a17;fill-opacity:1;fill-rule:nonzero;stroke:none"
       d="m 176.93214,577.86226 0.60001,0 0,-1.5 -0.60001,0 0,1.5 z"
       inkscape:connector-curvature="0" />
    <path
       id="path820"
       style="fill:#1f1a17;fill-opacity:1;fill-rule:nonzero;stroke:none"
       d="m 176.93214,581.16226 0.60001,0 0,-1.19999 -0.60001,0 0,1.19999 z"
       inkscape:connector-curvature="0" />
    <path
       id="path822"
       style="fill:#1f1a17;fill-opacity:1;fill-rule:nonzero;stroke:none"
       d="m 176.93214,584.76226 0.60001,0 0,-1.19999 -0.60001,0 0,1.19999 z"
       inkscape:connector-curvature="0" />
    <path
       id="path824"
       style="fill:#1f1a17;fill-opacity:1;fill-rule:nonzero;stroke:none"
       d="m 176.93214,588.36226 0.60001,0 0,-1.5 -0.60001,0 0,1.5 z"
       inkscape:connector-curvature="0" />
    <path
       id="path826"
       style="fill:#1f1a17;fill-opacity:1;fill-rule:nonzero;stroke:none"
       d="m 176.93214,591.96226 0.60001,0 0,-1.5 -0.60001,0 0,1.5 z"
       inkscape:connector-curvature="0" />
    <path
       id="path828"
       style="fill:#1f1a17;fill-opacity:1;fill-rule:nonzero;stroke:none"
       d="m 176.93214,595.56226 0.60001,0 0,-1.5 -0.60001,0 0,1.5 z"
       inkscape:connector-curvature="0" />
    <path
       id="path830"
       style="fill:#1f1a17;fill-opacity:1;fill-rule:nonzero;stroke:none"
       d="m 176.93214,599.16226 0.60001,0 0,-1.5 -0.60001,0 0,1.5 z"
       inkscape:connector-curvature="0" />
    <path
       id="path832"
       style="fill:#1f1a17;fill-opacity:1;fill-rule:nonzero;stroke:none"
       d="m 176.93214,602.46226 0.60001,0 0,-1.19999 -0.60001,0 0,1.19999 z"
       inkscape:connector-curvature="0" />
    <path
       id="path834"
       style="fill:#1f1a17;fill-opacity:1;fill-rule:nonzero;stroke:none"
       d="m 176.93214,606.06226 0.60001,0 0,-1.5 -0.60001,0 0,1.5 z"
       inkscape:connector-curvature="0" />
    <path
       id="path836"
       style="fill:#1f1a17;fill-opacity:1;fill-rule:nonzero;stroke:none"
       d="m 176.93214,609.66226 0.60001,0 0,-1.5 -0.60001,0 0,1.5 z"
       inkscape:connector-curvature="0" />
    <path
       id="path838"
       style="fill:#1f1a17;fill-opacity:1;fill-rule:nonzero;stroke:none"
       d="m 176.93214,613.26226 0.60001,0 0,-1.5 -0.60001,0 0,1.5 z"
       inkscape:connector-curvature="0" />
    <path
       id="path840"
       style="fill:#1f1a17;fill-opacity:1;fill-rule:nonzero;stroke:none"
       d="m 176.93214,616.86226 0.60001,0 0,-1.5 -0.60001,0 0,1.5 z"
       inkscape:connector-curvature="0" />
    <path
       id="path842"
       style="fill:#1f1a17;fill-opacity:1;fill-rule:nonzero;stroke:none"
       d="m 176.93214,620.16226 0.60001,0 0,-1.20002 -0.60001,0 0,1.20002 z"
       inkscape:connector-curvature="0" />
    <path
       id="path844"
       style="fill:#1f1a17;fill-opacity:1;fill-rule:nonzero;stroke:none"
       d="m 176.93214,623.76226 0.60001,0 0,-1.20002 -0.60001,0 0,1.20002 z"
       inkscape:connector-curvature="0" />
    <path
       id="path846"
       style="fill:#1f1a17;fill-opacity:1;fill-rule:nonzero;stroke:none"
       d="m 176.93214,627.36226 0.60001,0 0,-1.5 -0.60001,0 0,1.5 z"
       inkscape:connector-curvature="0" />
    <path
       id="path848"
       style="fill:#1f1a17;fill-opacity:1;fill-rule:nonzero;stroke:none"
       d="m 176.93214,630.96226 0.60001,0 0,-1.5 -0.60001,0 0,1.5 z"
       inkscape:connector-curvature="0" />
    <path
       id="path850"
       style="fill:#1f1a17;fill-opacity:1;fill-rule:nonzero;stroke:none"
       d="m 176.93214,634.56226 0.60001,0 0,-1.5 -0.60001,0 0,1.5 z"
       inkscape:connector-curvature="0" />
    <path
       id="path878"
       style="fill:#1f1a17;fill-opacity:1;fill-rule:nonzero;stroke:none"
       d="m 392.48214,481.65155 0.59997,0 0,-1.5 -0.59997,0 0,1.5 z"
       inkscape:connector-curvature="0" />
    <path
       id="path880"
       style="fill:#1f1a17;fill-opacity:1;fill-rule:nonzero;stroke:none"
       d="m 392.48214,485.25155 0.59997,0 0,-1.5 -0.59997,0 0,1.5 z"
       inkscape:connector-curvature="0" />
    <path
       id="path882"
       style="fill:#1f1a17;fill-opacity:1;fill-rule:nonzero;stroke:none"
       d="m 392.48214,488.55155 0.59997,0 0,-1.20003 -0.59997,0 0,1.20003 z"
       inkscape:connector-curvature="0" />
    <path
       id="path884"
       style="fill:#1f1a17;fill-opacity:1;fill-rule:nonzero;stroke:none"
       d="m 392.48214,492.15155 0.59997,0 0,-1.5 -0.59997,0 0,1.5 z"
       inkscape:connector-curvature="0" />
    <path
       id="path886"
       style="fill:#1f1a17;fill-opacity:1;fill-rule:nonzero;stroke:none"
       d="m 392.48214,495.75155 0.59997,0 0,-1.5 -0.59997,0 0,1.5 z"
       inkscape:connector-curvature="0" />
    <path
       id="path888"
       style="fill:#1f1a17;fill-opacity:1;fill-rule:nonzero;stroke:none"
       d="m 392.48214,499.35155 0.59997,0 0,-1.5 -0.59997,0 0,1.5 z"
       inkscape:connector-curvature="0" />
    <path
       id="path890"
       style="fill:#1f1a17;fill-opacity:1;fill-rule:nonzero;stroke:none"
       d="m 392.48214,502.95155 0.59997,0 0,-1.5 -0.59997,0 0,1.5 z"
       inkscape:connector-curvature="0" />
    <path
       id="path892"
       style="fill:#1f1a17;fill-opacity:1;fill-rule:nonzero;stroke:none"
       d="m 392.48214,506.25155 0.59997,0 0,-1.20003 -0.59997,0 0,1.20003 z"
       inkscape:connector-curvature="0" />
    <path
       id="path894"
       style="fill:#1f1a17;fill-opacity:1;fill-rule:nonzero;stroke:none"
       d="m 392.48214,509.85155 0.59997,0 0,-1.20003 -0.59997,0 0,1.20003 z"
       inkscape:connector-curvature="0" />
    <path
       id="path896"
       style="fill:#1f1a17;fill-opacity:1;fill-rule:nonzero;stroke:none"
       d="m 392.48214,513.45155 0.59997,0 0,-1.5 -0.59997,0 0,1.5 z"
       inkscape:connector-curvature="0" />
    <path
       id="path898"
       style="fill:#1f1a17;fill-opacity:1;fill-rule:nonzero;stroke:none"
       d="m 392.48214,517.05155 0.59997,0 0,-1.5 -0.59997,0 0,1.5 z"
       inkscape:connector-curvature="0" />
    <path
       id="path900"
       style="fill:#1f1a17;fill-opacity:1;fill-rule:nonzero;stroke:none"
       d="m 392.48214,520.65155 0.59997,0 0,-1.5 -0.59997,0 0,1.5 z"
       inkscape:connector-curvature="0" />
    <path
       id="path902"
       style="fill:#1f1a17;fill-opacity:1;fill-rule:nonzero;stroke:none"
       d="m 392.48214,524.25155 0.59997,0 0,-1.5 -0.59997,0 0,1.5 z"
       inkscape:connector-curvature="0" />
    <path
       id="path904"
       style="fill:#1f1a17;fill-opacity:1;fill-rule:nonzero;stroke:none"
       d="m 392.48214,527.55155 0.59997,0 0,-1.19995 -0.59997,0 0,1.19995 z"
       inkscape:connector-curvature="0" />
    <path
       id="path906"
       style="fill:#1f1a17;fill-opacity:1;fill-rule:nonzero;stroke:none"
       d="m 392.48214,531.15155 0.59997,0 0,-1.5 -0.59997,0 0,1.5 z"
       inkscape:connector-curvature="0" />
    <path
       id="path908"
       style="fill:#1f1a17;fill-opacity:1;fill-rule:nonzero;stroke:none"
       d="m 392.48214,534.75155 0.59997,0 0,-1.5 -0.59997,0 0,1.5 z"
       inkscape:connector-curvature="0" />
    <path
       id="path910"
       style="fill:#1f1a17;fill-opacity:1;fill-rule:nonzero;stroke:none"
       d="m 392.48214,538.35155 0.59997,0 0,-1.5 -0.59997,0 0,1.5 z"
       inkscape:connector-curvature="0" />
    <path
       id="path912"
       style="fill:#1f1a17;fill-opacity:1;fill-rule:nonzero;stroke:none"
       d="m 392.48214,541.95155 0.59997,0 0,-1.5 -0.59997,0 0,1.5 z"
       inkscape:connector-curvature="0" />
    <path
       id="path914"
       style="fill:#1f1a17;fill-opacity:1;fill-rule:nonzero;stroke:none"
       d="m 392.48214,545.25155 0.59997,0 0,-1.20002 -0.59997,0 0,1.20002 z"
       inkscape:connector-curvature="0" />
    <path
       id="path916"
       style="fill:#1f1a17;fill-opacity:1;fill-rule:nonzero;stroke:none"
       d="m 392.48214,548.85155 0.59997,0 0,-1.20002 -0.59997,0 0,1.20002 z"
       inkscape:connector-curvature="0" />
    <path
       id="path918"
       style="fill:#1f1a17;fill-opacity:1;fill-rule:nonzero;stroke:none"
       d="m 392.48214,552.45155 0.59997,0 0,-1.5 -0.59997,0 0,1.5 z"
       inkscape:connector-curvature="0" />
    <path
       id="path920"
       style="fill:#1f1a17;fill-opacity:1;fill-rule:nonzero;stroke:none"
       d="m 392.48214,556.05155 0.59997,0 0,-1.5 -0.59997,0 0,1.5 z"
       inkscape:connector-curvature="0" />
    <path
       id="path922"
       style="fill:#1f1a17;fill-opacity:1;fill-rule:nonzero;stroke:none"
       d="m 392.48214,559.65155 0.59997,0 0,-1.5 -0.59997,0 0,1.5 z"
       inkscape:connector-curvature="0" />
    <path
       id="path924"
       style="fill:#1f1a17;fill-opacity:1;fill-rule:nonzero;stroke:none"
       d="m 392.48214,542.23726 0.59997,0 0,-1.19999 -0.59997,0 0,1.19999 z"
       inkscape:connector-curvature="0" />
    <path
       id="path926"
       style="fill:#1f1a17;fill-opacity:1;fill-rule:nonzero;stroke:none"
       d="m 392.48214,545.76226 0.59997,0 0,-1.12499 -0.59997,0 0,1.12499 z"
       inkscape:connector-curvature="0" />
    <path
       id="path928"
       style="fill:#1f1a17;fill-opacity:1;fill-rule:nonzero;stroke:none"
       d="m 392.48214,549.36226 0.59997,0 0,-1.5 -0.59997,0 0,1.5 z"
       inkscape:connector-curvature="0" />
    <path
       id="path930"
       style="fill:#1f1a17;fill-opacity:1;fill-rule:nonzero;stroke:none"
       d="m 392.48214,552.96226 0.59997,0 0,-1.5 -0.59997,0 0,1.5 z"
       inkscape:connector-curvature="0" />
    <path
       id="path932"
       style="fill:#1f1a17;fill-opacity:1;fill-rule:nonzero;stroke:none"
       d="m 392.48214,556.56226 0.59997,0 0,-1.5 -0.59997,0 0,1.5 z"
       inkscape:connector-curvature="0" />
    <path
       id="path934"
       style="fill:#1f1a17;fill-opacity:1;fill-rule:nonzero;stroke:none"
       d="m 392.48214,560.16226 0.59997,0 0,-1.5 -0.59997,0 0,1.5 z"
       inkscape:connector-curvature="0" />
    <path
       id="path936"
       style="fill:#1f1a17;fill-opacity:1;fill-rule:nonzero;stroke:none"
       d="m 392.48214,563.46226 0.59997,0 0,-1.19999 -0.59997,0 0,1.19999 z"
       inkscape:connector-curvature="0" />
    <path
       id="path938"
       style="fill:#1f1a17;fill-opacity:1;fill-rule:nonzero;stroke:none"
       d="m 392.48214,567.06226 0.59997,0 0,-1.5 -0.59997,0 0,1.5 z"
       inkscape:connector-curvature="0" />
    <path
       id="path940"
       style="fill:#1f1a17;fill-opacity:1;fill-rule:nonzero;stroke:none"
       d="m 392.48214,570.66226 0.59997,0 0,-1.5 -0.59997,0 0,1.5 z"
       inkscape:connector-curvature="0" />
    <path
       id="path942"
       style="fill:#1f1a17;fill-opacity:1;fill-rule:nonzero;stroke:none"
       d="m 392.48214,574.26226 0.59997,0 0,-1.5 -0.59997,0 0,1.5 z"
       inkscape:connector-curvature="0" />
    <path
       id="path944"
       style="fill:#1f1a17;fill-opacity:1;fill-rule:nonzero;stroke:none"
       d="m 392.48214,577.86226 0.59997,0 0,-1.5 -0.59997,0 0,1.5 z"
       inkscape:connector-curvature="0" />
    <path
       id="path946"
       style="fill:#1f1a17;fill-opacity:1;fill-rule:nonzero;stroke:none"
       d="m 392.48214,581.16226 0.59997,0 0,-1.19999 -0.59997,0 0,1.19999 z"
       inkscape:connector-curvature="0" />
    <path
       id="path948"
       style="fill:#1f1a17;fill-opacity:1;fill-rule:nonzero;stroke:none"
       d="m 392.48214,584.76226 0.59997,0 0,-1.19999 -0.59997,0 0,1.19999 z"
       inkscape:connector-curvature="0" />
    <path
       id="path950"
       style="fill:#1f1a17;fill-opacity:1;fill-rule:nonzero;stroke:none"
       d="m 392.48214,588.36226 0.59997,0 0,-1.5 -0.59997,0 0,1.5 z"
       inkscape:connector-curvature="0" />
    <path
       id="path952"
       style="fill:#1f1a17;fill-opacity:1;fill-rule:nonzero;stroke:none"
       d="m 392.48214,591.96226 0.59997,0 0,-1.5 -0.59997,0 0,1.5 z"
       inkscape:connector-curvature="0" />
    <path
       id="path954"
       style="fill:#1f1a17;fill-opacity:1;fill-rule:nonzero;stroke:none"
       d="m 392.48214,595.56226 0.59997,0 0,-1.5 -0.59997,0 0,1.5 z"
       inkscape:connector-curvature="0" />
    <path
       id="path956"
       style="fill:#1f1a17;fill-opacity:1;fill-rule:nonzero;stroke:none"
       d="m 392.48214,599.16226 0.59997,0 0,-1.5 -0.59997,0 0,1.5 z"
       inkscape:connector-curvature="0" />
    <path
       id="path958"
       style="fill:#1f1a17;fill-opacity:1;fill-rule:nonzero;stroke:none"
       d="m 392.48214,602.46226 0.59997,0 0,-1.19999 -0.59997,0 0,1.19999 z"
       inkscape:connector-curvature="0" />
    <path
       id="path960"
       style="fill:#1f1a17;fill-opacity:1;fill-rule:nonzero;stroke:none"
       d="m 392.48214,606.06226 0.59997,0 0,-1.5 -0.59997,0 0,1.5 z"
       inkscape:connector-curvature="0" />
    <path
       id="path962"
       style="fill:#1f1a17;fill-opacity:1;fill-rule:nonzero;stroke:none"
       d="m 392.48214,609.66226 0.59997,0 0,-1.5 -0.59997,0 0,1.5 z"
       inkscape:connector-curvature="0" />
    <path
       id="path964"
       style="fill:#1f1a17;fill-opacity:1;fill-rule:nonzero;stroke:none"
       d="m 392.48214,613.26226 0.59997,0 0,-1.5 -0.59997,0 0,1.5 z"
       inkscape:connector-curvature="0" />
    <path
       id="path966"
       style="fill:#1f1a17;fill-opacity:1;fill-rule:nonzero;stroke:none"
       d="m 392.48214,616.86226 0.59997,0 0,-1.5 -0.59997,0 0,1.5 z"
       inkscape:connector-curvature="0" />
    <path
       id="path968"
       style="fill:#1f1a17;fill-opacity:1;fill-rule:nonzero;stroke:none"
       d="m 392.48214,620.16226 0.59997,0 0,-1.20002 -0.59997,0 0,1.20002 z"
       inkscape:connector-curvature="0" />
    <path
       id="path970"
       style="fill:#1f1a17;fill-opacity:1;fill-rule:nonzero;stroke:none"
       d="m 392.48214,623.76226 0.59997,0 0,-1.20002 -0.59997,0 0,1.20002 z"
       inkscape:connector-curvature="0" />
    <path
       id="path972"
       style="fill:#1f1a17;fill-opacity:1;fill-rule:nonzero;stroke:none"
       d="m 392.48214,627.36226 0.59997,0 0,-1.5 -0.59997,0 0,1.5 z"
       inkscape:connector-curvature="0" />
    <path
       id="path974"
       style="fill:#1f1a17;fill-opacity:1;fill-rule:nonzero;stroke:none"
       d="m 392.48214,630.96226 0.59997,0 0,-1.5 -0.59997,0 0,1.5 z"
       inkscape:connector-curvature="0" />
    <path
       id="path976"
       style="fill:#1f1a17;fill-opacity:1;fill-rule:nonzero;stroke:none"
       d="m 392.48214,634.56226 0.59997,0 0,-1.5 -0.59997,0 0,1.5 z"
       inkscape:connector-curvature="0" />
    <path
       id="path1004"
       style="fill:#1f1a17;fill-opacity:1;fill-rule:nonzero;stroke:none"
       d="m 278.85714,480.15155 0.60001,0 0,-1.5 -0.60001,0 0,1.5 z"
       inkscape:connector-curvature="0" />
    <path
       id="path1006"
       style="fill:#1f1a17;fill-opacity:1;fill-rule:nonzero;stroke:none"
       d="m 278.85714,483.75155 0.60001,0 0,-1.5 -0.60001,0 0,1.5 z"
       inkscape:connector-curvature="0" />
    <path
       id="path1008"
       style="fill:#1f1a17;fill-opacity:1;fill-rule:nonzero;stroke:none"
       d="m 278.85714,487.35155 0.60001,0 0,-1.5 -0.60001,0 0,1.5 z"
       inkscape:connector-curvature="0" />
    <path
       id="path1010"
       style="fill:#1f1a17;fill-opacity:1;fill-rule:nonzero;stroke:none"
       d="m 278.85714,490.95155 0.60001,0 0,-1.5 -0.60001,0 0,1.5 z"
       inkscape:connector-curvature="0" />
    <path
       id="path1012"
       style="fill:#1f1a17;fill-opacity:1;fill-rule:nonzero;stroke:none"
       d="m 278.85714,494.25155 0.60001,0 0,-1.19995 -0.60001,0 0,1.19995 z"
       inkscape:connector-curvature="0" />
    <path
       id="path1014"
       style="fill:#1f1a17;fill-opacity:1;fill-rule:nonzero;stroke:none"
       d="m 278.85714,497.85155 0.60001,0 0,-1.19995 -0.60001,0 0,1.19995 z"
       inkscape:connector-curvature="0" />
    <path
       id="path1016"
       style="fill:#1f1a17;fill-opacity:1;fill-rule:nonzero;stroke:none"
       d="m 278.85714,501.45155 0.60001,0 0,-1.5 -0.60001,0 0,1.5 z"
       inkscape:connector-curvature="0" />
    <path
       id="path1018"
       style="fill:#1f1a17;fill-opacity:1;fill-rule:nonzero;stroke:none"
       d="m 278.85714,505.05155 0.60001,0 0,-1.5 -0.60001,0 0,1.5 z"
       inkscape:connector-curvature="0" />
    <path
       id="path1020"
       style="fill:#1f1a17;fill-opacity:1;fill-rule:nonzero;stroke:none"
       d="m 278.85714,508.65155 0.60001,0 0,-1.5 -0.60001,0 0,1.5 z"
       inkscape:connector-curvature="0" />
    <path
       id="path1022"
       style="fill:#1f1a17;fill-opacity:1;fill-rule:nonzero;stroke:none"
       d="m 278.85714,512.25155 0.60001,0 0,-1.5 -0.60001,0 0,1.5 z"
       inkscape:connector-curvature="0" />
    <path
       id="path1024"
       style="fill:#1f1a17;fill-opacity:1;fill-rule:nonzero;stroke:none"
       d="m 278.85714,515.55155 0.60001,0 0,-1.20003 -0.60001,0 0,1.20003 z"
       inkscape:connector-curvature="0" />
    <path
       id="path1026"
       style="fill:#1f1a17;fill-opacity:1;fill-rule:nonzero;stroke:none"
       d="m 278.85714,519.15155 0.60001,0 0,-1.5 -0.60001,0 0,1.5 z"
       inkscape:connector-curvature="0" />
    <path
       id="path1028"
       style="fill:#1f1a17;fill-opacity:1;fill-rule:nonzero;stroke:none"
       d="m 278.85714,522.75155 0.60001,0 0,-1.5 -0.60001,0 0,1.5 z"
       inkscape:connector-curvature="0" />
    <path
       id="path1030"
       style="fill:#1f1a17;fill-opacity:1;fill-rule:nonzero;stroke:none"
       d="m 278.85714,526.35155 0.60001,0 0,-1.5 -0.60001,0 0,1.5 z"
       inkscape:connector-curvature="0" />
    <path
       id="path1032"
       style="fill:#1f1a17;fill-opacity:1;fill-rule:nonzero;stroke:none"
       d="m 278.85714,529.95155 0.60001,0 0,-1.5 -0.60001,0 0,1.5 z"
       inkscape:connector-curvature="0" />
    <path
       id="path1034"
       style="fill:#1f1a17;fill-opacity:1;fill-rule:nonzero;stroke:none"
       d="m 278.85714,533.25155 0.60001,0 0,-1.19995 -0.60001,0 0,1.19995 z"
       inkscape:connector-curvature="0" />
    <path
       id="path1036"
       style="fill:#1f1a17;fill-opacity:1;fill-rule:nonzero;stroke:none"
       d="m 278.85714,536.85155 0.60001,0 0,-1.19995 -0.60001,0 0,1.19995 z"
       inkscape:connector-curvature="0" />
    <path
       id="path1038"
       style="fill:#1f1a17;fill-opacity:1;fill-rule:nonzero;stroke:none"
       d="m 278.85714,540.45155 0.60001,0 0,-1.5 -0.60001,0 0,1.5 z"
       inkscape:connector-curvature="0" />
    <path
       id="path1040"
       style="fill:#1f1a17;fill-opacity:1;fill-rule:nonzero;stroke:none"
       d="m 278.85714,544.05155 0.60001,0 0,-1.5 -0.60001,0 0,1.5 z"
       inkscape:connector-curvature="0" />
    <path
       id="path1042"
       style="fill:#1f1a17;fill-opacity:1;fill-rule:nonzero;stroke:none"
       d="m 278.85714,547.65155 0.60001,0 0,-1.5 -0.60001,0 0,1.5 z"
       inkscape:connector-curvature="0" />
    <path
       id="path1044"
       style="fill:#1f1a17;fill-opacity:1;fill-rule:nonzero;stroke:none"
       d="m 278.85714,551.25155 0.60001,0 0,-1.5 -0.60001,0 0,1.5 z"
       inkscape:connector-curvature="0" />
    <path
       id="path1046"
       style="fill:#1f1a17;fill-opacity:1;fill-rule:nonzero;stroke:none"
       d="m 278.85714,554.55155 0.60001,0 0,-1.20002 -0.60001,0 0,1.20002 z"
       inkscape:connector-curvature="0" />
    <path
       id="path1048"
       style="fill:#1f1a17;fill-opacity:1;fill-rule:nonzero;stroke:none"
       d="m 278.85714,558.15155 0.60001,0 0,-1.5 -0.60001,0 0,1.5 z"
       inkscape:connector-curvature="0" />
    <path
       id="path1050"
       style="fill:#1f1a17;fill-opacity:1;fill-rule:nonzero;stroke:none"
       d="m 278.85714,541.03726 0.60001,0 0,-1.5 -0.60001,0 0,1.5 z"
       inkscape:connector-curvature="0" />
    <path
       id="path1052"
       style="fill:#1f1a17;fill-opacity:1;fill-rule:nonzero;stroke:none"
       d="m 278.85714,544.63726 0.60001,0 0,-1.5 -0.60001,0 0,1.5 z"
       inkscape:connector-curvature="0" />
    <path
       id="path1054"
       style="fill:#1f1a17;fill-opacity:1;fill-rule:nonzero;stroke:none"
       d="m 278.85714,548.16226 0.60001,0 0,-1.5 -0.60001,0 0,1.5 z"
       inkscape:connector-curvature="0" />
    <path
       id="path1056"
       style="fill:#1f1a17;fill-opacity:1;fill-rule:nonzero;stroke:none"
       d="m 278.85714,551.46226 0.60001,0 0,-1.19999 -0.60001,0 0,1.19999 z"
       inkscape:connector-curvature="0" />
    <path
       id="path1058"
       style="fill:#1f1a17;fill-opacity:1;fill-rule:nonzero;stroke:none"
       d="m 278.85714,555.06226 0.60001,0 0,-1.19999 -0.60001,0 0,1.19999 z"
       inkscape:connector-curvature="0" />
    <path
       id="path1060"
       style="fill:#1f1a17;fill-opacity:1;fill-rule:nonzero;stroke:none"
       d="m 278.85714,558.66226 0.60001,0 0,-1.5 -0.60001,0 0,1.5 z"
       inkscape:connector-curvature="0" />
    <path
       id="path1062"
       style="fill:#1f1a17;fill-opacity:1;fill-rule:nonzero;stroke:none"
       d="m 278.85714,562.26226 0.60001,0 0,-1.5 -0.60001,0 0,1.5 z"
       inkscape:connector-curvature="0" />
    <path
       id="path1064"
       style="fill:#1f1a17;fill-opacity:1;fill-rule:nonzero;stroke:none"
       d="m 278.85714,565.86226 0.60001,0 0,-1.5 -0.60001,0 0,1.5 z"
       inkscape:connector-curvature="0" />
    <path
       id="path1066"
       style="fill:#1f1a17;fill-opacity:1;fill-rule:nonzero;stroke:none"
       d="m 278.85714,569.46226 0.60001,0 0,-1.5 -0.60001,0 0,1.5 z"
       inkscape:connector-curvature="0" />
    <path
       id="path1068"
       style="fill:#1f1a17;fill-opacity:1;fill-rule:nonzero;stroke:none"
       d="m 278.85714,572.76226 0.60001,0 0,-1.19999 -0.60001,0 0,1.19999 z"
       inkscape:connector-curvature="0" />
    <path
       id="path1070"
       style="fill:#1f1a17;fill-opacity:1;fill-rule:nonzero;stroke:none"
       d="m 278.85714,576.36226 0.60001,0 0,-1.5 -0.60001,0 0,1.5 z"
       inkscape:connector-curvature="0" />
    <path
       id="path1072"
       style="fill:#1f1a17;fill-opacity:1;fill-rule:nonzero;stroke:none"
       d="m 278.85714,579.96226 0.60001,0 0,-1.5 -0.60001,0 0,1.5 z"
       inkscape:connector-curvature="0" />
    <path
       id="path1074"
       style="fill:#1f1a17;fill-opacity:1;fill-rule:nonzero;stroke:none"
       d="m 278.85714,583.56226 0.60001,0 0,-1.5 -0.60001,0 0,1.5 z"
       inkscape:connector-curvature="0" />
    <path
       id="path1076"
       style="fill:#1f1a17;fill-opacity:1;fill-rule:nonzero;stroke:none"
       d="m 278.85714,587.16226 0.60001,0 0,-1.5 -0.60001,0 0,1.5 z"
       inkscape:connector-curvature="0" />
    <path
       id="path1078"
       style="fill:#1f1a17;fill-opacity:1;fill-rule:nonzero;stroke:none"
       d="m 278.85714,590.46226 0.60001,0 0,-1.19999 -0.60001,0 0,1.19999 z"
       inkscape:connector-curvature="0" />
    <path
       id="path1080"
       style="fill:#1f1a17;fill-opacity:1;fill-rule:nonzero;stroke:none"
       d="m 278.85714,594.06226 0.60001,0 0,-1.20002 -0.60001,0 0,1.20002 z"
       inkscape:connector-curvature="0" />
    <path
       id="path1082"
       style="fill:#1f1a17;fill-opacity:1;fill-rule:nonzero;stroke:none"
       d="m 278.85714,597.66226 0.60001,0 0,-1.5 -0.60001,0 0,1.5 z"
       inkscape:connector-curvature="0" />
    <path
       id="path1084"
       style="fill:#1f1a17;fill-opacity:1;fill-rule:nonzero;stroke:none"
       d="m 278.85714,601.26226 0.60001,0 0,-1.5 -0.60001,0 0,1.5 z"
       inkscape:connector-curvature="0" />
    <path
       id="path1086"
       style="fill:#1f1a17;fill-opacity:1;fill-rule:nonzero;stroke:none"
       d="m 278.85714,604.86226 0.60001,0 0,-1.5 -0.60001,0 0,1.5 z"
       inkscape:connector-curvature="0" />
    <path
       id="path1088"
       style="fill:#1f1a17;fill-opacity:1;fill-rule:nonzero;stroke:none"
       d="m 278.85714,608.16226 0.60001,0 0,-1.19999 -0.60001,0 0,1.19999 z"
       inkscape:connector-curvature="0" />
    <path
       id="path1090"
       style="fill:#1f1a17;fill-opacity:1;fill-rule:nonzero;stroke:none"
       d="m 278.85714,611.76226 0.60001,0 0,-1.20002 -0.60001,0 0,1.20002 z"
       inkscape:connector-curvature="0" />
    <path
       id="path1092"
       style="fill:#1f1a17;fill-opacity:1;fill-rule:nonzero;stroke:none"
       d="m 278.85714,615.36226 0.60001,0 0,-1.5 -0.60001,0 0,1.5 z"
       inkscape:connector-curvature="0" />
    <path
       id="path1094"
       style="fill:#1f1a17;fill-opacity:1;fill-rule:nonzero;stroke:none"
       d="m 278.85714,618.96226 0.60001,0 0,-1.5 -0.60001,0 0,1.5 z"
       inkscape:connector-curvature="0" />
    <path
       id="path1096"
       style="fill:#1f1a17;fill-opacity:1;fill-rule:nonzero;stroke:none"
       d="m 278.85714,622.56226 0.60001,0 0,-1.5 -0.60001,0 0,1.5 z"
       inkscape:connector-curvature="0" />
    <path
       id="path1098"
       style="fill:#1f1a17;fill-opacity:1;fill-rule:nonzero;stroke:none"
       d="m 278.85714,626.16226 0.60001,0 0,-1.5 -0.60001,0 0,1.5 z"
       inkscape:connector-curvature="0" />
    <path
       id="path1100"
       style="fill:#1f1a17;fill-opacity:1;fill-rule:nonzero;stroke:none"
       d="m 278.85714,629.46226 0.60001,0 0,-1.20002 -0.60001,0 0,1.20002 z"
       inkscape:connector-curvature="0" />
    <path
       id="path1102"
       style="fill:#1f1a17;fill-opacity:1;fill-rule:nonzero;stroke:none"
       d="m 278.85714,633.06226 0.60001,0 0,-1.5 -0.60001,0 0,1.5 z"
       inkscape:connector-curvature="0" />
    <path
       id="path1104"
       style="fill:#1f1a17;fill-opacity:1;fill-rule:nonzero;stroke:none"
       d="m 278.85714,636.66226 0.60001,0 0,-1.5 -0.60001,0 0,1.5 z"
       inkscape:connector-curvature="0" />
    <text
       id="text1112"
       transform="scale(1.0121034,0.98804135)"
       x="145.30293"
       y="654.33099"
       style="font-size:14.82062054px">
      <tspan
         id="tspan1114"
         sodipodi:role="line"
         y="654.33099"
         x="145.30293 155.66351 158.32919 164.44456 168.59415 175.42342 184.36893 191.1982 193.86388 196.82532 203.64056"
         style="font-size:12.74832726px;font-variant:normal;font-weight:normal;font-stretch:normal;writing-mode:lr-tb;fill:#000000;fill-opacity:1;fill-rule:nonzero;stroke:none;font-family:Arial;-inkscape-font-specification:ArialMT">Mikrowellen</tspan>
      <tspan
         id="tspan1116"
         sodipodi:role="line"
         y="655.84937"
         x="256.01324 259.57263 266.38788 269.65018 273.79977 280.61502 284.76462"
         style="font-size:12.74832726px;font-variant:normal;font-weight:normal;font-stretch:normal;writing-mode:lr-tb;fill:#000000;fill-opacity:1;fill-rule:nonzero;stroke:none;font-family:Arial;-inkscape-font-specification:ArialMT">Infrarot</tspan>
    </text>
    <text
       id="text1130"
       transform="scale(1.0121034,0.98804135)"
       x="378.97498"
       y="654.99835"
       style="font-size:14.82062054px">
      <tspan
         id="tspan1132"
         sodipodi:role="line"
         y="654.99835"
         x="378.97498 387.86566"
         style="font-size:12.74832726px;font-variant:normal;font-weight:normal;font-stretch:normal;writing-mode:lr-tb;fill:#000000;fill-opacity:1;fill-rule:nonzero;stroke:none;font-family:Arial;-inkscape-font-specification:ArialMT">UV</tspan>
    </text>
    <text
       sodipodi:linespacing="125%"
       id="text4962"
       y="453.07648"
       x="349.64285"
       style="font-size:9px;font-style:normal;font-variant:normal;font-weight:normal;font-stretch:normal;line-height:125%;letter-spacing:0px;word-spacing:0px;fill:#000000;fill-opacity:1;stroke:none;font-family:LMRoman8;-inkscape-font-specification:LMRoman8"
       xml:space="preserve"><tspan
         y="453.07648"
         x="349.64285"
         id="tspan4964"
         sodipodi:role="line" /></text>
    <text
       sodipodi:linespacing="100%"
       id="text4974"
       y="487.36221"
       x="302.14288"
       style="font-size:12px;font-style:normal;font-variant:normal;font-weight:normal;font-stretch:normal;line-height:100%;letter-spacing:0px;word-spacing:0px;fill:#000000;fill-opacity:1;stroke:none;font-family:Arial;-inkscape-font-specification:Arial"
       xml:space="preserve"><tspan
         style="font-size:14px;line-height:100%"
         y="487.36221"
         x="302.14288"
         id="tspan4976"
         sodipodi:role="line">Sichtbares</tspan><tspan
         id="tspan4978"
         style="font-size:14px;line-height:100%"
         y="501.36221"
         x="302.14288"
         sodipodi:role="line">Licht</tspan></text>
    <g
       id="g5248"
       transform="matrix(0.4,0,0,0.4,76.861456,359.67158)">
      <g
         word-spacing="normal"
         letter-spacing="normal"
         font-size-adjust="none"
         font-stretch="normal"
         font-weight="normal"
         font-variant="normal"
         font-style="normal"
         stroke-miterlimit="10.433"
         xml:space="preserve"
         transform="matrix(1.0629921,0,0,-1.0629921,-186.02362,789.27165)"
         id="content"
         style="font-style:normal;font-variant:normal;font-weight:normal;font-stretch:normal;letter-spacing:normal;word-spacing:normal;text-anchor:start;fill:none;stroke:#000000;stroke-width:2.5;stroke-linecap:butt;stroke-linejoin:miter;stroke-miterlimit:10.43299961;stroke-opacity:1;stroke-dasharray:none;stroke-dashoffset:0"><path
           id="path5251"
           d="m 462.55,417.51 0.15,-0.06 0.16,-0.06 0.15,-0.06 0.15,-0.05 0.14,-0.05 0.15,-0.04 0.15,-0.05 0.14,-0.03 0.15,-0.04 0.14,-0.03 0.28,-0.06 0.27,-0.05 0.28,-0.03 0.26,-0.03 0.26,-0.02 0.26,-0.02 0.25,-0.01 0.24,-0.01 0.24,0 0.23,0 0.23,0 v 1.09 c -1.09,0 -1.7,0 -2.64,0.25 h 0 c 1.14,0.41 2.19,0.46 3.03,0.46 1.25,0 1.46,-0.05 2.35,-0.3 -0.75,-0.35 -0.85,-0.41 -2.74,-0.41 v -1.09 c 1.3,0 4.03,0 4.03,1.55 0,1.2 -1.75,1.34 -3.64,1.34 -1.04,0 -2.78,-0.09 -4.62,-0.94 -1.16,0.6 -2,1.53 -2,2.88 0,3.04 4.89,4.84 9.37,4.84 0.8,0 2.58,0 4.58,-1.41 0.55,-0.39 0.64,-0.48 1,-0.48 0.64,0 1.34,0.64 1.34,1.34 0,0.94 -3.04,2.83 -6.42,2.83 -5.73,0 -11.11,-3.33 -11.11,-7.12 0,-2.14 1.78,-3.38 1.99,-3.53 -2.94,-1.65 -4.53,-4.44 -4.53,-6.72 0,-3.25 2.84,-6.28 8.12,-6.28 6.58,0 9.36,4.37 9.36,5.12 0,0.3 -0.25,0.5 -0.55,0.5 -0.25,0 -0.39,-0.2 -0.5,-0.34 -0.7,-1.14 -1.89,-2.99 -7.87,-2.99 -3.03,0 -7.27,0.74 -7.27,4.28 0,1.69 1.39,4.33 4.44,5.83 z"
           inkscape:connector-curvature="0"
           style="fill:#000000;stroke-width:0" /><path
           id="path5253"
           d="m 488.91,440.65 0.03,0.06 0.02,0.05 0.02,0.05 0.02,0.05 0.02,0.04 0.02,0.05 0.02,0.04 0.02,0.04 0.01,0.05 0.02,0.04 0.01,0.03 0.01,0.04 0.01,0.04 0.01,0.03 0.01,0.04 0.01,0.03 0.01,0.03 0.01,0.03 0,0.03 0.01,0.03 0,0.03 0.01,0.03 0,0.03 0,0.02 0.01,0.06 0,0.05 0,0.04 0,0.05 c 0,1.08 -0.98,1.92 -2.06,1.92 -1.33,0 -1.73,-1.09 -1.91,-1.64 l -4.61,-15.09 c -0.03,-0.06 -0.17,-0.52 -0.17,-0.56 0,-0.41 1.08,-0.77 1.36,-0.77 0.25,0 0.28,0.08 0.52,0.59 z"
           inkscape:connector-curvature="0"
           style="fill:#000000;stroke-width:0" /></g>    </g>
    <g
       id="g5759"
       transform="matrix(0.4,0,0,0.4,69.550386,463.60015)">
      <g
         id="g5761"
         transform="matrix(1.0629921,0,0,-1.0629921,-186.02362,789.27165)"
         xml:space="preserve"
         stroke-miterlimit="10.433"
         font-style="normal"
         font-variant="normal"
         font-weight="normal"
         font-stretch="normal"
         font-size-adjust="none"
         letter-spacing="normal"
         word-spacing="normal"
         style="font-style:normal;font-variant:normal;font-weight:normal;font-stretch:normal;letter-spacing:normal;word-spacing:normal;text-anchor:start;fill:none;stroke:#000000;stroke-width:2.5;stroke-linecap:butt;stroke-linejoin:miter;stroke-miterlimit:10.43299961;stroke-opacity:1;stroke-dasharray:none;stroke-dashoffset:0"><path
           d="m 462.55,417.51 0.15,-0.06 0.16,-0.06 0.15,-0.06 0.15,-0.05 0.14,-0.05 0.15,-0.04 0.15,-0.05 0.14,-0.03 0.15,-0.04 0.14,-0.03 0.28,-0.06 0.27,-0.05 0.28,-0.03 0.26,-0.03 0.26,-0.02 0.26,-0.02 0.25,-0.01 0.24,-0.01 0.24,0 0.23,0 0.23,0 v 1.09 c -1.09,0 -1.7,0 -2.64,0.25 h 0 c 1.14,0.41 2.19,0.46 3.03,0.46 1.25,0 1.46,-0.05 2.35,-0.3 -0.75,-0.35 -0.85,-0.41 -2.74,-0.41 v -1.09 c 1.3,0 4.03,0 4.03,1.55 0,1.2 -1.75,1.34 -3.64,1.34 -1.04,0 -2.78,-0.09 -4.62,-0.94 -1.16,0.6 -2,1.53 -2,2.88 0,3.04 4.89,4.84 9.37,4.84 0.8,0 2.58,0 4.58,-1.41 0.55,-0.39 0.64,-0.48 1,-0.48 0.64,0 1.34,0.64 1.34,1.34 0,0.94 -3.04,2.83 -6.42,2.83 -5.73,0 -11.11,-3.33 -11.11,-7.12 0,-2.14 1.78,-3.38 1.99,-3.53 -2.94,-1.65 -4.53,-4.44 -4.53,-6.72 0,-3.25 2.84,-6.28 8.12,-6.28 6.58,0 9.36,4.37 9.36,5.12 0,0.3 -0.25,0.5 -0.55,0.5 -0.25,0 -0.39,-0.2 -0.5,-0.34 -0.7,-1.14 -1.89,-2.99 -7.87,-2.99 -3.03,0 -7.27,0.74 -7.27,4.28 0,1.69 1.39,4.33 4.44,5.83 z"
           id="path5763"
           inkscape:connector-curvature="0"
           style="fill:#000000;stroke-width:0" /><path
           d="m 488.91,440.65 0.03,0.06 0.02,0.05 0.02,0.05 0.02,0.05 0.02,0.04 0.02,0.05 0.02,0.04 0.02,0.04 0.01,0.05 0.02,0.04 0.01,0.03 0.01,0.04 0.01,0.04 0.01,0.03 0.01,0.04 0.01,0.03 0.01,0.03 0.01,0.03 0,0.03 0.01,0.03 0,0.03 0.01,0.03 0,0.03 0,0.02 0.01,0.06 0,0.05 0,0.04 0,0.05 c 0,1.08 -0.98,1.92 -2.06,1.92 -1.33,0 -1.73,-1.09 -1.91,-1.64 l -4.61,-15.09 c -0.03,-0.06 -0.17,-0.52 -0.17,-0.56 0,-0.41 1.08,-0.77 1.36,-0.77 0.25,0 0.28,0.08 0.52,0.59 z"
           id="path5765"
           inkscape:connector-curvature="0"
           style="fill:#000000;stroke-width:0" /><path
           d="m 500.43,440.65 0.03,0.06 0.02,0.05 0.02,0.05 0.02,0.05 0.02,0.04 0.02,0.05 0.02,0.04 0.02,0.04 0.01,0.05 0.02,0.04 0.01,0.03 0.01,0.04 0.01,0.04 0.01,0.03 0.01,0.04 0.01,0.03 0.01,0.03 0.01,0.03 0,0.03 0.01,0.03 0,0.03 0.01,0.03 0,0.03 0,0.02 0.01,0.06 0,0.05 0,0.04 0,0.05 c 0,1.08 -0.98,1.92 -2.06,1.92 -1.33,0 -1.73,-1.09 -1.91,-1.64 l -4.61,-15.09 c -0.03,-0.06 -0.17,-0.52 -0.17,-0.56 0,-0.41 1.08,-0.77 1.36,-0.77 0.25,0 0.28,0.08 0.52,0.59 z"
           id="path5767"
           inkscape:connector-curvature="0"
           style="fill:#000000;stroke-width:0" /></g>    </g>
    <g
       id="g6809"
       transform="matrix(0.4,0,0,0.4,-27.748567,342.99153)">
      <g
         id="g6811"
         transform="matrix(1.0629921,0,0,-1.0629921,-186.02362,789.27165)"
         xml:space="preserve"
         stroke-miterlimit="10.433"
         font-style="normal"
         font-variant="normal"
         font-weight="normal"
         font-stretch="normal"
         font-size-adjust="none"
         letter-spacing="normal"
         word-spacing="normal"
         style="font-style:normal;font-variant:normal;font-weight:normal;font-stretch:normal;letter-spacing:normal;word-spacing:normal;text-anchor:start;fill:none;stroke:#000000;stroke-width:2.5;stroke-linecap:butt;stroke-linejoin:miter;stroke-miterlimit:10.43299961;stroke-opacity:1;stroke-dasharray:none;stroke-dashoffset:0"><path
           d="m 462.55,417.51 0.15,-0.06 0.16,-0.06 0.15,-0.06 0.15,-0.05 0.14,-0.05 0.15,-0.04 0.15,-0.05 0.14,-0.03 0.15,-0.04 0.14,-0.03 0.28,-0.06 0.27,-0.05 0.28,-0.03 0.26,-0.03 0.26,-0.02 0.26,-0.02 0.25,-0.01 0.24,-0.01 0.24,0 0.23,0 0.23,0 v 1.09 c -1.09,0 -1.7,0 -2.64,0.25 h 0 c 1.14,0.41 2.19,0.46 3.03,0.46 1.25,0 1.46,-0.05 2.35,-0.3 -0.75,-0.35 -0.85,-0.41 -2.74,-0.41 v -1.09 c 1.3,0 4.03,0 4.03,1.55 0,1.2 -1.75,1.34 -3.64,1.34 -1.04,0 -2.78,-0.09 -4.62,-0.94 -1.16,0.6 -2,1.53 -2,2.88 0,3.04 4.89,4.84 9.37,4.84 0.8,0 2.58,0 4.58,-1.41 0.55,-0.39 0.64,-0.48 1,-0.48 0.64,0 1.34,0.64 1.34,1.34 0,0.94 -3.04,2.83 -6.42,2.83 -5.73,0 -11.11,-3.33 -11.11,-7.12 0,-2.14 1.78,-3.38 1.99,-3.53 -2.94,-1.65 -4.53,-4.44 -4.53,-6.72 0,-3.25 2.84,-6.28 8.12,-6.28 6.58,0 9.36,4.37 9.36,5.12 0,0.3 -0.25,0.5 -0.55,0.5 -0.25,0 -0.39,-0.2 -0.5,-0.34 -0.7,-1.14 -1.89,-2.99 -7.87,-2.99 -3.03,0 -7.27,0.74 -7.27,4.28 0,1.69 1.39,4.33 4.44,5.83 z"
           id="path6813"
           inkscape:connector-curvature="0"
           style="fill:#000000;stroke-width:0" /><path
           d="m 491.52,413.67 -0.22,0.09 -0.22,0.08 -0.21,0.08 -0.21,0.08 -0.21,0.07 -0.2,0.06 -0.2,0.07 -0.19,0.05 -0.2,0.06 -0.18,0.05 -0.19,0.04 -0.18,0.05 -0.18,0.04 -0.17,0.03 -0.17,0.03 -0.17,0.03 -0.17,0.03 -0.16,0.02 -0.16,0.03 -0.15,0.02 -0.3,0.03 -0.29,0.02 -0.27,0.02 -0.27,0.01 -0.25,0 -0.24,0 c -0.87,0 -6.14,0 -6.14,-4.64 0,-1.64 0.91,-2.55 1.36,-2.97 1.22,-1.22 2.69,-1.48 4.53,-1.84 1.64,-0.31 3.52,-0.66 3.52,-2.33 0,-2.2 -2.89,-2.2 -3.38,-2.2 -2.23,0 -4.33,0.81 -5.72,1.78 l -0.48,-2.61 c 1.19,-0.59 3.31,-1.53 6.2,-1.53 1.56,0 3.09,0.23 4.39,1.19 1.28,0.96 1.7,2.5 1.7,3.68 0,0.63 -0.06,1.99 -1.53,3.32 -1.29,1.14 -2.54,1.39 -4.22,1.7 -2.04,0.39 -3.65,0.7 -3.65,2.23 0,1.99 2.55,1.99 3.06,1.99 1.99,0 3.52,-0.42 5.27,-1.33 z"
           id="path6815"
           inkscape:connector-curvature="0"
           style="fill:#000000;stroke-width:0" /><path
           d="m 499.5,412.04 h 5.16 v 2.19 h -5.16 v 4.42 h -2.67 v -4.42 h -3.17 v -2.19 h 3.06 v -8.83 c 0,-2.32 0.6,-4.79 3.1,-4.79 2.51,0 4.43,0.79 5.47,1.28 l -0.58,2.23 c -1.16,-0.84 -2.38,-1.11 -3.36,-1.11 -1.46,0 -1.85,1.43 -1.85,3.04 z"
           id="path6817"
           inkscape:connector-curvature="0"
           style="fill:#000000;stroke-width:0" /><path
           d="m 521.12,408.79 -0.01,0.33 -0.02,0.33 -0.04,0.31 -0.06,0.31 -0.06,0.3 -0.09,0.3 -0.09,0.28 -0.11,0.28 -0.12,0.27 -0.14,0.26 -0.15,0.25 -0.16,0.24 -0.17,0.23 -0.18,0.22 -0.19,0.21 -0.2,0.2 -0.22,0.19 -0.22,0.18 -0.23,0.17 -0.24,0.16 -0.25,0.15 -0.26,0.14 -0.27,0.12 -0.27,0.11 -0.29,0.1 -0.28,0.09 -0.3,0.07 -0.3,0.06 -0.3,0.05 -0.32,0.03 -0.31,0.02 -0.32,0.01 c -2.19,0 -3.86,-0.45 -5.82,-1.5 l 0.21,-2.55 c 1.15,0.77 2.86,1.82 5.61,1.82 1.53,0 3.14,-1.16 3.14,-3.77 v -1.39 c -5.16,-0.17 -10.25,-1.25 -10.25,-4.5 0,-1.73 1.18,-4.45 4.25,-4.45 1.5,0 4.25,0.31 6.11,1.67 l -1.33,1.28 c -1.11,-0.62 -2.47,-0.66 -2.86,-0.66 -1.92,0 -3.38,0.88 -3.38,2.19 0,2.24 5.89,2.44 7.46,2.52 v -1.71 c 0,-0.7 0,-1.6 -1.22,-2.34 l 1.33,-1.28 v -1.33 h 2.92 z"
           id="path6819"
           inkscape:connector-curvature="0"
           style="fill:#000000;stroke-width:0" /><path
           d="m 530.58,412.04 h 5.15 v 2.19 h -5.15 v 4.42 h -2.67 v -4.42 h -3.18 v -2.19 h 3.07 v -8.83 c 0,-2.32 0.59,-4.79 3.09,-4.79 2.52,0 4.44,0.79 5.47,1.28 l -0.58,2.23 c -1.16,-0.84 -2.37,-1.11 -3.36,-1.11 -1.45,0 -1.84,1.43 -1.84,3.04 z"
           id="path6821"
           inkscape:connector-curvature="0"
           style="fill:#000000;stroke-width:0" /></g>    </g>
    <g
       id="g7357"
       transform="matrix(0.4,0,0,0.4,-20.274059,371.32836)">
      <g
         word-spacing="normal"
         letter-spacing="normal"
         font-size-adjust="none"
         font-stretch="normal"
         font-weight="normal"
         font-variant="normal"
         font-style="normal"
         stroke-miterlimit="10.433"
         xml:space="preserve"
         transform="matrix(1.0629921,0,0,-1.0629921,-186.02362,789.27165)"
         id="g7359"
         style="font-style:normal;font-variant:normal;font-weight:normal;font-stretch:normal;letter-spacing:normal;word-spacing:normal;text-anchor:start;fill:none;stroke:#000000;stroke-width:2.5;stroke-linecap:butt;stroke-linejoin:miter;stroke-miterlimit:10.43299961;stroke-opacity:1;stroke-dasharray:none;stroke-dashoffset:0"><path
           id="path7361"
           d="m 462.55,417.51 0.15,-0.06 0.16,-0.06 0.15,-0.06 0.15,-0.05 0.14,-0.05 0.15,-0.04 0.15,-0.05 0.14,-0.03 0.15,-0.04 0.14,-0.03 0.28,-0.06 0.27,-0.05 0.28,-0.03 0.26,-0.03 0.26,-0.02 0.26,-0.02 0.25,-0.01 0.24,-0.01 0.24,0 0.23,0 0.23,0 v 1.09 c -1.09,0 -1.7,0 -2.64,0.25 h 0 c 1.14,0.41 2.19,0.46 3.03,0.46 1.25,0 1.46,-0.05 2.35,-0.3 -0.75,-0.35 -0.85,-0.41 -2.74,-0.41 v -1.09 c 1.3,0 4.03,0 4.03,1.55 0,1.2 -1.75,1.34 -3.64,1.34 -1.04,0 -2.78,-0.09 -4.62,-0.94 -1.16,0.6 -2,1.53 -2,2.88 0,3.04 4.89,4.84 9.37,4.84 0.8,0 2.58,0 4.58,-1.41 0.55,-0.39 0.64,-0.48 1,-0.48 0.64,0 1.34,0.64 1.34,1.34 0,0.94 -3.04,2.83 -6.42,2.83 -5.73,0 -11.11,-3.33 -11.11,-7.12 0,-2.14 1.78,-3.38 1.99,-3.53 -2.94,-1.65 -4.53,-4.44 -4.53,-6.72 0,-3.25 2.84,-6.28 8.12,-6.28 6.58,0 9.36,4.37 9.36,5.12 0,0.3 -0.25,0.5 -0.55,0.5 -0.25,0 -0.39,-0.2 -0.5,-0.34 -0.7,-1.14 -1.89,-2.99 -7.87,-2.99 -3.03,0 -7.27,0.74 -7.27,4.28 0,1.69 1.39,4.33 4.44,5.83 z"
           inkscape:connector-curvature="0"
           style="fill:#000000;stroke-width:0" /><path
           id="path7363"
           d="m 498.94,408.31 -0.17,0.2 -0.16,0.19 -0.16,0.18 -0.14,0.17 -0.15,0.16 -0.13,0.16 -0.14,0.15 -0.12,0.14 -0.13,0.14 -0.11,0.13 -0.12,0.13 -0.11,0.12 -0.11,0.11 -0.1,0.11 -0.11,0.11 -0.1,0.1 -0.2,0.19 -0.19,0.19 -0.2,0.17 -0.2,0.17 -0.2,0.16 -0.22,0.17 -0.11,0.08 -0.11,0.08 -0.12,0.09 -0.12,0.09 c -2.13,1.54 -4.35,2.12 -6.27,2.12 -4.33,0 -7.45,-3.69 -7.45,-7.87 h 0.97 c 0,3.36 2.72,5.96 5.92,5.96 3.25,0 5.47,-2.65 8.81,-6.68 h 0 c -1.39,-2.27 -4.42,-5.8 -8.67,-5.8 -3.59,0 -6.06,3.17 -6.06,6.52 h -0.97 c 0,-4.07 2.98,-7.83 7.34,-7.83 4.85,0 8.24,3.97 9.49,5.81 1.84,-2.16 2.4,-2.75 3.72,-3.69 2.12,-1.53 4.35,-2.12 6.28,-2.12 4.31,0 7.45,3.69 7.45,7.87 h -0.97 c 0,-3.34 -2.72,-5.97 -5.92,-5.97 -3.25,0 -5.49,2.66 -8.83,6.71 h 0 c 1.41,2.25 4.44,5.78 8.69,5.78 3.58,0 6.06,-3.17 6.06,-6.52 h 0.97 c 0,4.08 -3,7.83 -7.34,7.83 -4.85,0 -8.24,-3.97 -9.49,-5.81 z"
           inkscape:connector-curvature="0"
           style="fill:#000000;stroke-width:0" /></g>    </g>
    <g
       id="g7907"
       transform="matrix(0.4,0,0,0.4,326.57119,495.50416)">
      <g
         id="g7909"
         transform="matrix(1.0629921,0,0,-1.0629921,-186.02362,789.27165)"
         xml:space="preserve"
         stroke-miterlimit="10.433"
         font-style="normal"
         font-variant="normal"
         font-weight="normal"
         font-stretch="normal"
         font-size-adjust="none"
         letter-spacing="normal"
         word-spacing="normal"
         style="font-style:normal;font-variant:normal;font-weight:normal;font-stretch:normal;letter-spacing:normal;word-spacing:normal;text-anchor:start;fill:none;stroke:#000000;stroke-width:2.5;stroke-linecap:butt;stroke-linejoin:miter;stroke-miterlimit:10.43299961;stroke-opacity:1;stroke-dasharray:none;stroke-dashoffset:0"><path
           d="m 485.66,424.73 0,0.21 -0.01,0.2 -0.01,0.2 -0.02,0.19 -0.02,0.18 -0.03,0.18 -0.03,0.17 -0.04,0.16 -0.04,0.16 -0.04,0.16 -0.05,0.14 -0.05,0.14 -0.05,0.13 -0.06,0.13 -0.07,0.12 -0.06,0.12 -0.07,0.1 -0.07,0.1 -0.08,0.1 -0.08,0.09 -0.08,0.08 -0.08,0.07 -0.08,0.07 -0.09,0.06 -0.09,0.05 -0.09,0.05 -0.1,0.04 -0.09,0.03 -0.1,0.02 -0.1,0.02 -0.1,0.01 -0.1,0 c -1.3,0 -2.64,-1.18 -2.64,-2.34 0,-0.48 0.23,-1.03 0.73,-1.48 0.86,-0.75 1.75,-2.1 1.75,-4.19 0,-2 -0.95,-4.83 -2.48,-7.13 -1.5,-2.14 -3.35,-3.82 -5.69,-3.82 -2.85,0 -4.39,1.78 -4.83,4.46 0.55,1.3 1.69,4.49 1.69,5.9 0,0.59 -0.25,1.09 -0.89,1.09 -0.41,0 -0.96,-0.11 -1.35,-0.84 -0.54,-1 -1.15,-4.24 -1.15,-6.04 -1.64,-2.34 -3.63,-4.57 -6.77,-4.57 -3.3,0 -4.34,2.93 -4.34,5.71 0,6.24 5.09,11.47 5.09,12.11 0,0.55 -0.41,0.96 -0.95,0.96 -0.66,0 -1,-0.66 -1.3,-1.11 -2.55,-3.69 -4.44,-9.61 -4.44,-14.14 0,-3.44 1.16,-7.13 5.24,-7.13 3.53,0 5.87,2.49 7.67,5.24 0.45,-2.89 2.39,-5.24 5.48,-5.24 3.89,0 6.29,3.03 8.07,6.78 1.2,2.44 3.09,9.21 3.09,12.3 z"
           id="path7911"
           inkscape:connector-curvature="0"
           style="fill:#000000;stroke-width:0" /></g>    </g>
    <g
       id="g8461"
       transform="matrix(0.4,0,0,0.4,103.26519,497.63121)">
      <g
         word-spacing="normal"
         letter-spacing="normal"
         font-size-adjust="none"
         font-stretch="normal"
         font-weight="normal"
         font-variant="normal"
         font-style="normal"
         stroke-miterlimit="10.433"
         xml:space="preserve"
         transform="matrix(1.0629921,0,0,-1.0629921,-186.02362,789.27165)"
         id="g8463"
         style="font-style:normal;font-variant:normal;font-weight:normal;font-stretch:normal;letter-spacing:normal;word-spacing:normal;text-anchor:start;fill:none;stroke:#000000;stroke-width:2.5;stroke-linecap:butt;stroke-linejoin:miter;stroke-miterlimit:10.43299961;stroke-opacity:1;stroke-dasharray:none;stroke-dashoffset:0"><path
           id="path8465"
           d="m 485.66,424.73 0,0.21 -0.01,0.2 -0.01,0.2 -0.02,0.19 -0.02,0.18 -0.03,0.18 -0.03,0.17 -0.04,0.16 -0.04,0.16 -0.04,0.16 -0.05,0.14 -0.05,0.14 -0.05,0.13 -0.06,0.13 -0.07,0.12 -0.06,0.12 -0.07,0.1 -0.07,0.1 -0.08,0.1 -0.08,0.09 -0.08,0.08 -0.08,0.07 -0.08,0.07 -0.09,0.06 -0.09,0.05 -0.09,0.05 -0.1,0.04 -0.09,0.03 -0.1,0.02 -0.1,0.02 -0.1,0.01 -0.1,0 c -1.3,0 -2.64,-1.18 -2.64,-2.34 0,-0.48 0.23,-1.03 0.73,-1.48 0.86,-0.75 1.75,-2.1 1.75,-4.19 0,-2 -0.95,-4.83 -2.48,-7.13 -1.5,-2.14 -3.35,-3.82 -5.69,-3.82 -2.85,0 -4.39,1.78 -4.83,4.46 0.55,1.3 1.69,4.49 1.69,5.9 0,0.59 -0.25,1.09 -0.89,1.09 -0.41,0 -0.96,-0.11 -1.35,-0.84 -0.54,-1 -1.15,-4.24 -1.15,-6.04 -1.64,-2.34 -3.63,-4.57 -6.77,-4.57 -3.3,0 -4.34,2.93 -4.34,5.71 0,6.24 5.09,11.47 5.09,12.11 0,0.55 -0.41,0.96 -0.95,0.96 -0.66,0 -1,-0.66 -1.3,-1.11 -2.55,-3.69 -4.44,-9.61 -4.44,-14.14 0,-3.44 1.16,-7.13 5.24,-7.13 3.53,0 5.87,2.49 7.67,5.24 0.45,-2.89 2.39,-5.24 5.48,-5.24 3.89,0 6.29,3.03 8.07,6.78 1.2,2.44 3.09,9.21 3.09,12.3 z"
           inkscape:connector-curvature="0"
           style="fill:#000000;stroke-width:0" /><path
           id="path8467"
           d="m 506.62,408.31 -0.17,0.2 -0.16,0.19 -0.16,0.18 -0.14,0.17 -0.15,0.16 -0.13,0.16 -0.14,0.15 -0.12,0.14 -0.13,0.14 -0.11,0.13 -0.12,0.13 -0.11,0.12 -0.11,0.11 -0.1,0.11 -0.11,0.11 -0.1,0.1 -0.2,0.19 -0.19,0.19 -0.2,0.17 -0.2,0.17 -0.2,0.16 -0.22,0.17 -0.11,0.08 -0.11,0.08 -0.12,0.09 -0.12,0.09 c -2.13,1.54 -4.35,2.12 -6.27,2.12 -4.33,0 -7.45,-3.69 -7.45,-7.87 h 0.97 c 0,3.36 2.72,5.96 5.92,5.96 3.25,0 5.47,-2.65 8.81,-6.68 h 0 c -1.39,-2.27 -4.42,-5.8 -8.67,-5.8 -3.59,0 -6.06,3.17 -6.06,6.52 h -0.97 c 0,-4.07 2.98,-7.83 7.34,-7.83 4.85,0 8.24,3.97 9.49,5.81 1.84,-2.16 2.4,-2.75 3.71,-3.69 2.13,-1.53 4.36,-2.12 6.29,-2.12 4.31,0 7.45,3.69 7.45,7.87 h -0.97 c 0,-3.34 -2.72,-5.97 -5.92,-5.97 -3.25,0 -5.49,2.66 -8.83,6.71 h 0 c 1.41,2.25 4.44,5.78 8.69,5.78 3.58,0 6.06,-3.17 6.06,-6.52 h 0.97 c 0,4.08 -3,7.83 -7.35,7.83 -4.84,0 -8.23,-3.97 -9.48,-5.81 z"
           inkscape:connector-curvature="0"
           style="fill:#000000;stroke-width:0" /></g>    </g>
    <path
       style="fill:none;stroke:#000000;stroke-width:0.70866144;stroke-linecap:butt;stroke-linejoin:miter;stroke-miterlimit:4;stroke-opacity:1;stroke-dasharray:2.12598425, 2.12598425;stroke-dashoffset:0"
       d="m 129.01881,513.4458 c 104.57896,0 104.57896,0 104.57896,0"
       id="path8746"
       inkscape:connector-curvature="0" />
    <g
       transform="matrix(0.4,0,0,0.4,20.947427,322.10868)"
       id="g9796">
      <g
         style="font-style:normal;font-variant:normal;font-weight:normal;font-stretch:normal;letter-spacing:normal;word-spacing:normal;text-anchor:start;fill:none;stroke:#000000;stroke-width:2.5;stroke-linecap:butt;stroke-linejoin:miter;stroke-miterlimit:10.43299961;stroke-opacity:1;stroke-dasharray:none;stroke-dashoffset:0"
         id="g9798"
         transform="matrix(1.0629921,0,0,-1.0629921,-186.02362,789.27165)"
         xml:space="preserve"
         stroke-miterlimit="10.433"
         font-style="normal"
         font-variant="normal"
         font-weight="normal"
         font-stretch="normal"
         font-size-adjust="none"
         letter-spacing="normal"
         word-spacing="normal"><path
           style="fill:#000000;stroke-width:0"
           inkscape:connector-curvature="0"
           d="m 462.55,417.51 0.15,-0.06 0.16,-0.06 0.15,-0.06 0.15,-0.05 0.14,-0.05 0.15,-0.04 0.15,-0.05 0.14,-0.03 0.15,-0.04 0.14,-0.03 0.28,-0.06 0.27,-0.05 0.28,-0.03 0.26,-0.03 0.26,-0.02 0.26,-0.02 0.25,-0.01 0.24,-0.01 0.24,0 0.23,0 0.23,0 v 1.09 c -1.09,0 -1.7,0 -2.64,0.25 h 0 c 1.14,0.41 2.19,0.46 3.03,0.46 1.25,0 1.46,-0.05 2.35,-0.3 -0.75,-0.35 -0.85,-0.41 -2.74,-0.41 v -1.09 c 1.3,0 4.03,0 4.03,1.55 0,1.2 -1.75,1.34 -3.64,1.34 -1.04,0 -2.78,-0.09 -4.62,-0.94 -1.16,0.6 -2,1.53 -2,2.88 0,3.04 4.89,4.84 9.37,4.84 0.8,0 2.58,0 4.58,-1.41 0.55,-0.39 0.64,-0.48 1,-0.48 0.64,0 1.34,0.64 1.34,1.34 0,0.94 -3.04,2.83 -6.42,2.83 -5.73,0 -11.11,-3.33 -11.11,-7.12 0,-2.14 1.78,-3.38 1.99,-3.53 -2.94,-1.65 -4.53,-4.44 -4.53,-6.72 0,-3.25 2.84,-6.28 8.12,-6.28 6.58,0 9.36,4.37 9.36,5.12 0,0.3 -0.25,0.5 -0.55,0.5 -0.25,0 -0.39,-0.2 -0.5,-0.34 -0.7,-1.14 -1.89,-2.99 -7.87,-2.99 -3.03,0 -7.27,0.74 -7.27,4.28 0,1.69 1.39,4.33 4.44,5.83 z"
           id="path9800" /><path
           style="fill:#000000;stroke-width:0"
           inkscape:connector-curvature="0"
           d="m 526.83,422.5 0.14,0 0.15,0 0.14,0 0.07,0.01 0.08,0 0.07,0.01 0.07,0.01 0.07,0.01 0.07,0.01 0.07,0.01 0.06,0.02 0.07,0.02 0.06,0.02 0.06,0.02 0.06,0.03 0.06,0.03 0.05,0.04 0.05,0.03 0.05,0.05 0.04,0.04 0.04,0.05 0.02,0.03 0.02,0.03 0.01,0.02 0.02,0.03 0.01,0.03 0.01,0.04 0.02,0.03 0.01,0.04 0.01,0.03 0.01,0.04 0,0.04 0.01,0.04 0,0.04 0.01,0.04 0,0.04 0,0.05 c 0,1 -0.95,1 -1.64,1 h -29.84 c -0.71,0 -1.65,0 -1.65,-1 0,-0.98 0.94,-0.98 1.69,-0.98 z"
           id="path9802" /><path
           style="fill:#000000;stroke-width:0"
           inkscape:connector-curvature="0"
           d="m 526.88,412.82 0.06,0 0.07,0 0.14,0.01 0.14,0 0.07,0 0.07,0.01 0.06,0.01 0.07,0 0.07,0.01 0.07,0.02 0.07,0.01 0.06,0.02 0.07,0.02 0.06,0.02 0.06,0.02 0.05,0.03 0.06,0.03 0.05,0.04 0.05,0.04 0.05,0.04 0.04,0.05 0.02,0.02 0.02,0.03 0.02,0.02 0.02,0.03 0.01,0.03 0.02,0.03 0.01,0.03 0.01,0.03 0.02,0.04 0.01,0.03 0.01,0.04 0.01,0.04 0,0.04 0.01,0.04 0,0.04 0.01,0.04 0,0.05 0,0.04 c 0,1 -0.95,1 -1.69,1 h -29.75 c -0.75,0 -1.69,0 -1.69,-1 0,-1 0.94,-1 1.65,-1 z"
           id="path9804" /><path
           style="fill:#000000;stroke-width:0"
           inkscape:connector-curvature="0"
           d="m 552.19,417.51 0.15,-0.06 0.15,-0.06 0.15,-0.06 0.15,-0.05 0.15,-0.05 0.15,-0.04 0.14,-0.05 0.15,-0.03 0.14,-0.04 0.15,-0.03 0.28,-0.06 0.27,-0.05 0.27,-0.03 0.27,-0.03 0.26,-0.02 0.25,-0.02 0.25,-0.01 0.25,-0.01 0.24,0 0.23,0 0.23,0 v 1.09 c -1.09,0 -1.7,0 -2.64,0.25 h 0 c 1.14,0.41 2.19,0.46 3.03,0.46 1.25,0 1.45,-0.05 2.34,-0.3 -0.75,-0.35 -0.84,-0.41 -2.73,-0.41 v -1.09 c 1.3,0 4.03,0 4.03,1.55 0,1.2 -1.75,1.34 -3.64,1.34 -1.05,0 -2.78,-0.09 -4.63,-0.94 -1.15,0.6 -2,1.53 -2,2.88 0,3.04 4.89,4.84 9.38,4.84 0.8,0 2.58,0 4.58,-1.41 0.54,-0.39 0.64,-0.48 1,-0.48 0.64,0 1.34,0.64 1.34,1.34 0,0.94 -3.05,2.83 -6.42,2.83 -5.73,0 -11.11,-3.33 -11.11,-7.12 0,-2.14 1.78,-3.38 1.98,-3.53 -2.93,-1.65 -4.53,-4.44 -4.53,-6.72 0,-3.25 2.85,-6.28 8.13,-6.28 6.58,0 9.36,4.37 9.36,5.12 0,0.3 -0.25,0.5 -0.55,0.5 -0.25,0 -0.39,-0.2 -0.5,-0.34 -0.7,-1.14 -1.89,-2.99 -7.87,-2.99 -3.04,0 -7.27,0.74 -7.27,4.28 0,1.69 1.39,4.33 4.44,5.83 z"
           id="path9806" /><path
           style="fill:#000000;stroke-width:0"
           inkscape:connector-curvature="0"
           d="m 578.55,440.65 0.03,0.06 0.02,0.05 0.02,0.05 0.03,0.05 0.02,0.04 0.01,0.05 0.02,0.04 0.02,0.04 0.01,0.05 0.02,0.04 0.01,0.03 0.01,0.04 0.01,0.04 0.01,0.03 0.01,0.04 0.01,0.03 0.01,0.03 0.01,0.03 0,0.03 0.01,0.03 0,0.03 0.01,0.03 0,0.03 0,0.02 0.01,0.06 0,0.05 0,0.04 0,0.05 c 0,1.08 -0.98,1.92 -2.06,1.92 -1.33,0 -1.73,-1.09 -1.9,-1.64 l -4.62,-15.09 c -0.03,-0.06 -0.17,-0.52 -0.17,-0.56 0,-0.41 1.08,-0.77 1.36,-0.77 0.25,0 0.28,0.08 0.52,0.59 z"
           id="path9808" /><path
           style="fill:#000000;stroke-width:0"
           inkscape:connector-curvature="0"
           d="m 613.9,417.65 h 13.9 c 0.69,0 1.64,0 1.64,1 0,1 -0.95,1 -1.64,1 h -13.9 v 13.96 c 0,0.68 0,1.64 -1,1.64 -0.99,0 -0.99,-0.96 -0.99,-1.64 v -13.96 h -13.95 c -0.71,0 -1.64,0 -1.64,-1 0,-1 0.93,-1 1.64,-1 h 13.95 v -13.94 c 0,-0.7 0,-1.65 0.99,-1.65 1,0 1,0.95 1,1.65 z"
           id="path9810" /><path
           style="fill:#000000;stroke-width:0"
           inkscape:connector-curvature="0"
           d="m 663.1,437.34 0,0.09 -0.01,0.08 -0.01,0.09 -0.01,0.09 -0.02,0.08 -0.02,0.08 -0.03,0.09 -0.03,0.08 -0.03,0.07 -0.04,0.08 -0.04,0.08 -0.05,0.07 -0.05,0.07 -0.05,0.07 -0.05,0.07 -0.06,0.06 -0.06,0.06 -0.07,0.06 -0.07,0.05 -0.07,0.06 -0.08,0.04 -0.08,0.05 -0.08,0.04 -0.09,0.04 -0.09,0.03 -0.09,0.03 -0.09,0.03 -0.1,0.02 -0.1,0.01 -0.11,0.02 -0.1,0 -0.11,0.01 c -1.16,0 -2.64,-1.16 -2.64,-2.64 0,-1 0.68,-1.8 1.84,-1.8 1.34,0 2.69,1.3 2.69,2.64 z"
           id="path9812" /><path
           style="fill:#000000;stroke-width:0"
           inkscape:connector-curvature="0"
           d="m 653.08,403.71 -0.09,-0.35 -0.1,-0.35 -0.11,-0.34 -0.12,-0.33 -0.13,-0.33 -0.13,-0.32 -0.14,-0.31 -0.15,-0.3 -0.15,-0.3 -0.16,-0.29 -0.17,-0.28 -0.17,-0.26 -0.18,-0.26 -0.19,-0.25 -0.19,-0.24 -0.2,-0.23 -0.2,-0.22 -0.2,-0.2 -0.22,-0.19 -0.21,-0.19 -0.23,-0.16 -0.22,-0.16 -0.23,-0.14 -0.24,-0.13 -0.23,-0.12 -0.25,-0.1 -0.24,-0.08 -0.25,-0.08 -0.25,-0.05 -0.26,-0.04 -0.25,-0.03 -0.26,-0.01 c -0.3,0 -1.05,0 -1.96,0.46 1.5,0.36 2.25,1.64 2.25,2.64 0,0.79 -0.54,1.75 -1.89,1.75 -1.25,0 -2.68,-1.05 -2.68,-2.85 0,-2 1.98,-3.09 4.37,-3.09 3.48,0 8.13,2.64 9.38,7.58 l 4.57,18.23 c 0.25,1 0.25,1.69 0.25,1.85 0,2.84 -2.09,4.57 -4.57,4.57 -5.1,0 -7.93,-7.21 -7.93,-7.67 0,-0.5 0.49,-0.5 0.6,-0.5 0.45,0 0.5,0.07 0.89,1 1.25,3.05 3.54,6.08 6.28,6.08 0.7,0 1.59,-0.2 1.59,-2.28 0,-1.16 -0.15,-1.7 -0.34,-2.55 z"
           id="path9814" /><path
           style="fill:#000000;stroke-width:0"
           inkscape:connector-curvature="0"
           d="m 673.75,417.51 0.15,-0.06 0.16,-0.06 0.15,-0.06 0.15,-0.05 0.14,-0.05 0.15,-0.04 0.15,-0.05 0.14,-0.03 0.15,-0.04 0.14,-0.03 0.28,-0.06 0.27,-0.05 0.27,-0.03 0.27,-0.03 0.26,-0.02 0.26,-0.02 0.25,-0.01 0.24,-0.01 0.24,0 0.23,0 0.23,0 v 1.09 c -1.09,0 -1.7,0 -2.64,0.25 h 0 c 1.14,0.41 2.19,0.46 3.03,0.46 1.25,0 1.46,-0.05 2.35,-0.3 -0.75,-0.35 -0.85,-0.41 -2.74,-0.41 v -1.09 c 1.3,0 4.03,0 4.03,1.55 0,1.2 -1.75,1.34 -3.64,1.34 -1.04,0 -2.78,-0.09 -4.62,-0.94 -1.16,0.6 -2,1.53 -2,2.88 0,3.04 4.89,4.84 9.37,4.84 0.8,0 2.58,0 4.58,-1.41 0.55,-0.39 0.64,-0.48 1,-0.48 0.64,0 1.34,0.64 1.34,1.34 0,0.94 -3.04,2.83 -6.42,2.83 -5.73,0 -11.11,-3.33 -11.11,-7.12 0,-2.14 1.78,-3.38 1.99,-3.53 -2.94,-1.65 -4.53,-4.44 -4.53,-6.72 0,-3.25 2.84,-6.28 8.12,-6.28 6.58,0 9.36,4.37 9.36,5.12 0,0.3 -0.25,0.5 -0.55,0.5 -0.25,0 -0.39,-0.2 -0.5,-0.34 -0.7,-1.14 -1.89,-2.99 -7.87,-2.99 -3.03,0 -7.27,0.74 -7.27,4.28 0,1.69 1.39,4.33 4.44,5.83 z"
           id="path9816" /><path
           style="fill:#000000;stroke-width:0"
           inkscape:connector-curvature="0"
           d="m 700.11,440.65 0.02,0.06 0.03,0.05 0.02,0.05 0.02,0.05 0.02,0.04 0.02,0.05 0.02,0.04 0.02,0.04 0.01,0.05 0.02,0.04 0.01,0.03 0.01,0.04 0.01,0.04 0.01,0.03 0.01,0.04 0.01,0.03 0.01,0.03 0.01,0.03 0,0.03 0.01,0.03 0,0.03 0.01,0.03 0,0.03 0,0.02 0.01,0.06 0,0.05 0,0.04 0,0.05 c 0,1.08 -0.98,1.92 -2.06,1.92 -1.33,0 -1.74,-1.09 -1.91,-1.64 l -4.61,-15.09 c -0.03,-0.06 -0.17,-0.52 -0.17,-0.56 0,-0.41 1.08,-0.77 1.36,-0.77 0.25,0 0.28,0.08 0.52,0.59 z"
           id="path9818" /><path
           style="fill:#000000;stroke-width:0"
           inkscape:connector-curvature="0"
           d="m 711.63,440.65 0.02,0.06 0.03,0.05 0.02,0.05 0.02,0.05 0.02,0.04 0.02,0.05 0.02,0.04 0.02,0.04 0.01,0.05 0.02,0.04 0.01,0.03 0.01,0.04 0.01,0.04 0.01,0.03 0.01,0.04 0.01,0.03 0.01,0.03 0,0.03 0.01,0.03 0.01,0.03 0,0.03 0.01,0.03 0,0.03 0,0.02 0.01,0.06 0,0.05 0,0.04 0,0.05 c 0,1.08 -0.98,1.92 -2.06,1.92 -1.33,0 -1.73,-1.09 -1.91,-1.64 l -4.61,-15.09 c -0.03,-0.06 -0.17,-0.52 -0.17,-0.56 0,-0.41 1.08,-0.77 1.36,-0.77 0.25,0 0.28,0.08 0.52,0.59 z"
           id="path9820" /></g>    </g>
    <path
       style="fill:none;stroke:#000000;stroke-width:0.70866144;stroke-linecap:butt;stroke-linejoin:miter;stroke-miterlimit:4;stroke-opacity:1;stroke-dasharray:2.12598424, 2.12598424;stroke-dashoffset:0"
       d="m 129.13835,526.64789 c 349.10871,0 349.10871,0 349.10871,0"
       id="path8746-8"
       inkscape:connector-curvature="0" />
    <g
       id="g10425"
       transform="matrix(0.4,0,0,0.4,302.21108,379.67158)">
      <g
         word-spacing="normal"
         letter-spacing="normal"
         font-size-adjust="none"
         font-stretch="normal"
         font-weight="normal"
         font-variant="normal"
         font-style="normal"
         stroke-miterlimit="10.433"
         xml:space="preserve"
         transform="matrix(1.0629921,0,0,-1.0629921,-186.02362,789.27165)"
         id="g10427"
         style="font-style:normal;font-variant:normal;font-weight:normal;font-stretch:normal;letter-spacing:normal;word-spacing:normal;text-anchor:start;fill:none;stroke:#000000;stroke-width:2.5;stroke-linecap:butt;stroke-linejoin:miter;stroke-miterlimit:10.43299961;stroke-opacity:1;stroke-dasharray:none;stroke-dashoffset:0"><path
           id="path10429"
           d="m 462.55,417.51 0.15,-0.06 0.16,-0.06 0.15,-0.06 0.15,-0.05 0.14,-0.05 0.15,-0.04 0.15,-0.05 0.14,-0.03 0.15,-0.04 0.14,-0.03 0.28,-0.06 0.27,-0.05 0.28,-0.03 0.26,-0.03 0.26,-0.02 0.26,-0.02 0.25,-0.01 0.24,-0.01 0.24,0 0.23,0 0.23,0 v 1.09 c -1.09,0 -1.7,0 -2.64,0.25 h 0 c 1.14,0.41 2.19,0.46 3.03,0.46 1.25,0 1.46,-0.05 2.35,-0.3 -0.75,-0.35 -0.85,-0.41 -2.74,-0.41 v -1.09 c 1.3,0 4.03,0 4.03,1.55 0,1.2 -1.75,1.34 -3.64,1.34 -1.04,0 -2.78,-0.09 -4.62,-0.94 -1.16,0.6 -2,1.53 -2,2.88 0,3.04 4.89,4.84 9.37,4.84 0.8,0 2.58,0 4.58,-1.41 0.55,-0.39 0.64,-0.48 1,-0.48 0.64,0 1.34,0.64 1.34,1.34 0,0.94 -3.04,2.83 -6.42,2.83 -5.73,0 -11.11,-3.33 -11.11,-7.12 0,-2.14 1.78,-3.38 1.99,-3.53 -2.94,-1.65 -4.53,-4.44 -4.53,-6.72 0,-3.25 2.84,-6.28 8.12,-6.28 6.58,0 9.36,4.37 9.36,5.12 0,0.3 -0.25,0.5 -0.55,0.5 -0.25,0 -0.39,-0.2 -0.5,-0.34 -0.7,-1.14 -1.89,-2.99 -7.87,-2.99 -3.03,0 -7.27,0.74 -7.27,4.28 0,1.69 1.39,4.33 4.44,5.83 z"
           inkscape:connector-curvature="0"
           style="fill:#000000;stroke-width:0" /><path
           id="path10431"
           d="m 488.91,440.65 0.03,0.06 0.02,0.05 0.02,0.05 0.02,0.05 0.02,0.04 0.02,0.05 0.02,0.04 0.02,0.04 0.01,0.05 0.02,0.04 0.01,0.03 0.01,0.04 0.01,0.04 0.01,0.03 0.01,0.04 0.01,0.03 0.01,0.03 0.01,0.03 0,0.03 0.01,0.03 0,0.03 0.01,0.03 0,0.03 0,0.02 0.01,0.06 0,0.05 0,0.04 0,0.05 c 0,1.08 -0.98,1.92 -2.06,1.92 -1.33,0 -1.73,-1.09 -1.91,-1.64 l -4.61,-15.09 c -0.03,-0.06 -0.17,-0.52 -0.17,-0.56 0,-0.41 1.08,-0.77 1.36,-0.77 0.25,0 0.28,0.08 0.52,0.59 z"
           inkscape:connector-curvature="0"
           style="fill:#000000;stroke-width:0" /><path
           id="path10433"
           d="m 548.19,417.65 -0.25,-0.19 -0.25,-0.2 -0.23,-0.19 -0.23,-0.2 -0.22,-0.19 -0.22,-0.19 -0.2,-0.19 -0.2,-0.19 -0.19,-0.18 -0.18,-0.18 -0.18,-0.18 -0.17,-0.18 -0.16,-0.17 -0.15,-0.17 -0.15,-0.17 -0.14,-0.16 -0.13,-0.15 -0.13,-0.16 -0.12,-0.15 -0.11,-0.14 -0.11,-0.14 -0.1,-0.13 -0.09,-0.13 -0.09,-0.12 -0.08,-0.11 -0.08,-0.11 -0.07,-0.11 -0.06,-0.09 -0.06,-0.09 -0.05,-0.08 -0.05,-0.07 -0.04,-0.07 c -2.23,-3.44 -2.64,-6.58 -2.64,-6.62 0,-0.6 0.61,-0.6 1,-0.6 0.85,0 0.89,0.1 1.1,1 1.15,4.88 4.09,9.06 9.72,11.36 0.59,0.19 0.74,0.3 0.74,0.64 0,0.35 -0.29,0.5 -0.4,0.55 -2.19,0.84 -8.22,3.34 -10.11,11.72 -0.16,0.59 -0.2,0.73 -1.05,0.73 -0.39,0 -1,0 -1,-0.59 0,-0.1 0.46,-3.24 2.55,-6.58 1,-1.48 2.44,-3.23 4.58,-4.83 h -37.02 c -0.89,0 -1.79,0 -1.79,-1 0,-1 0.9,-1 1.79,-1 z"
           inkscape:connector-curvature="0"
           style="fill:#000000;stroke-width:0" /><path
           id="path10435"
           d="m 584.88,438.09 0,0.05 0,0.06 0,0.05 0,0.05 0,0.05 0,0.05 0,0.04 0,0.05 0,0.04 -0.01,0.04 0,0.04 0,0.04 0,0.04 0,0.03 -0.01,0.04 0,0.03 -0.01,0.07 -0.01,0.06 -0.01,0.05 -0.01,0.05 -0.02,0.05 -0.02,0.04 -0.02,0.04 -0.02,0.03 -0.03,0.03 -0.03,0.03 -0.04,0.03 -0.04,0.02 -0.04,0.02 -0.03,0.01 -0.02,0.01 -0.03,0 -0.02,0.01 -0.03,0.01 -0.03,0 -0.03,0.01 -0.04,0 -0.03,0.01 -0.03,0 -0.04,0 -0.04,0.01 -0.04,0 -0.04,0 -0.04,0 -0.04,0 -0.04,0 -0.05,0.01 -0.05,0 -0.05,0 -0.05,0 -0.05,0 c -3.09,-3.19 -7.47,-3.19 -9.06,-3.19 v -1.55 c 1,0 3.93,0 6.51,1.3 v -25.81 c 0,-1.8 -0.14,-2.39 -4.62,-2.39 h -1.6 v -1.55 c 1.75,0.16 6.08,0.16 8.06,0.16 2,0 6.33,0 8.08,-0.16 v 1.55 h -1.59 c -4.49,0 -4.64,0.54 -4.64,2.39 z"
           inkscape:connector-curvature="0"
           style="fill:#000000;stroke-width:0" /></g>    </g>
    <path
       style="fill:none;stroke:#000000;stroke-width:0.70866144;stroke-linecap:butt;stroke-linejoin:miter;stroke-miterlimit:4;stroke-opacity:1;stroke-dasharray:2.12598426, 2.12598426;stroke-dashoffset:0"
       d="m 232.84016,512.6741 c 0,116.68095 0,116.68095 0,116.68095"
       id="path8746-9"
       inkscape:connector-curvature="0" />
  </g>
</svg>
